note On F4 velocity: 110
note On G4 velocity: 93
note On A4 velocity: 87
note On F4 velocity: 102
note On G4 velocity: 90
note On F4 velocity: 102
note On A4 velocity: 96
channel 1 : control change: 64 value: 69
channel 1 : control change: 64 value: 109
channel 1 : control change: 64 value: 127
channel 1 : note On G3 velocity: 84
channel 1 : note Off G3 velocity: 0
channel 1 : note On C4 velocity: 117
channel 1 : note Off C4 velocity: 0
channel 1 : note On C4 velocity: 122
channel 1 : note Off C4 velocity: 0
channel 1 : control change: 64 value: 67
channel 1 : control change: 64 value: 27
channel 1 : control change: 64 value: 6
channel 1 : control change: 64 value: 0
channel 1 : control change: 64 value: 69
channel 1 : control change: 64 value: 109
channel 1 : control change: 64 value: 127
channel 1 : note On E4 velocity: 117
channel 1 : note On D4 velocity: 112
channel 1 : note Off E4 velocity: 0
channel 1 : note On C4 velocity: 105
channel 1 : note Off D4 velocity: 0
channel 1 : note On E4 velocity: 117
channel 1 : note Off C4 velocity: 0
channel 1 : control change: 64 value: 67
channel 1 : control change: 64 value: 27
channel 1 : control change: 64 value: 6
channel 1 : control change: 64 value: 0
channel 1 : control change: 64 value: 69
channel 1 : control change: 64 value: 109
channel 1 : control change: 64 value: 127
channel 1 : note Off E4 velocity: 0
channel 1 : control change: 64 value: 67
channel 1 : control change: 64 value: 27
channel 1 : control change: 64 value: 6
channel 1 : control change: 64 value: 0
channel 1 : control change: 64 value: 69
channel 1 : control change: 64 value: 109
channel 1 : control change: 64 value: 127
channel 1 : note On E4 velocity: 117
channel 1 : note On D4 velocity: 112
channel 1 : note Off E4 velocity: 0
channel 1 : control change: 64 value: 67
channel 1 : control change: 64 value: 27
channel 1 : control change: 64 value: 6
channel 1 : control change: 64 value: 0
channel 1 : note Off D4 velocity: 0
channel 1 : note On C4 velocity: 120
channel 1 : control change: 64 value: 67
channel 1 : control change: 64 value: 109
channel 1 : control change: 64 value: 127
channel 1 : note Off C4 velocity: 0
channel 1 : control change: 64 value: 67
channel 1 : control change: 64 value: 27
channel 1 : control change: 64 value: 6
channel 1 : control change: 64 value: 0
channel 1 : note On A3 velocity: 100
channel 1 : control change: 64 value: 69
channel 1 : control change: 64 value: 109
channel 1 : control change: 64 value: 127
channel 1 : note Off A3 velocity: 0
channel 1 : note On G3 velocity: 105
channel 1 : note Off G3 velocity: 0
channel 1 : control change: 64 value: 67
channel 1 : control change: 64 value: 27
channel 1 : control change: 64 value: 6
channel 1 : control change: 64 value: 0
channel 2 : control change: 121 value: 0
channel 2 : control change: 0 value: 0
channel 2 : control change: 32 value: 0
channel 2 : program change 0
channel 2 : control change: 10 value: 64
channel 2 : control change: 7 value: 100
channel 2 : control change: 91 value: 0
channel 2 : control change: 11 value: 127
channel 2 : control change: 1 value: 0
channel 2 : control change: 101 value: 0
channel 2 : control change: 100 value: 1
channel 2 : control change: 6 value: 64
channel 2 : control change: 38 value: 0
channel 2 : control change: 101 value: 0
channel 2 : control change: 100 value: 2
channel 2 : control change: 6 value: 64
channel 2 : control change: 101 value: 0
channel 2 : control change: 100 value: 0
channel 2 : control change: 6 value: 12
channel 2 : pitch wheel change 8192
channel 2 : control change: 101 value: 127
channel 2 : control change: 100 value: 127
channel 3 : control change: 121 value: 0
channel 3 : control change: 0 value: 0
channel 3 : control change: 32 value: 0
channel 3 : program change 0
channel 3 : control change: 10 value: 64
channel 3 : control change: 7 value: 100
channel 3 : control change: 91 value: 0
channel 3 : control change: 11 value: 127
channel 3 : control change: 1 value: 0
channel 3 : control change: 101 value: 0
channel 3 : control change: 100 value: 1
channel 3 : control change: 6 value: 64
channel 3 : control change: 38 value: 0
channel 3 : control change: 101 value: 0
channel 3 : control change: 100 value: 2
channel 3 : control change: 6 value: 64
channel 3 : control change: 101 value: 0
channel 3 : control change: 100 value: 0
channel 3 : control change: 6 value: 12
channel 3 : pitch wheel change 8192
channel 3 : control change: 101 value: 127
channel 3 : control change: 100 value: 127
channel 4 : control change: 121 value: 0
channel 4 : control change: 0 value: 0
channel 4 : control change: 32 value: 0
channel 4 : program change 0
channel 4 : control change: 10 value: 64
channel 4 : control change: 7 value: 100
channel 4 : control change: 91 value: 0
channel 4 : control change: 11 value: 127
channel 4 : control change: 1 value: 0
channel 4 : control change: 101 value: 0
channel 4 : control change: 100 value: 1
channel 4 : control change: 6 value: 64
channel 4 : control change: 38 value: 0
channel 4 : control change: 101 value: 0
channel 4 : control change: 100 value: 2
channel 4 : control change: 6 value: 64
channel 4 : control change: 101 value: 0
channel 4 : control change: 100 value: 0
channel 4 : control change: 6 value: 12
channel 4 : pitch wheel change 8192
channel 4 : control change: 101 value: 127
channel 4 : control change: 100 value: 127
channel 5 : control change: 121 value: 0
channel 5 : control change: 0 value: 0
channel 5 : control change: 32 value: 0
channel 5 : program change 0
channel 5 : control change: 10 value: 64
channel 5 : control change: 7 value: 100
channel 5 : control change: 91 value: 0
channel 5 : control change: 11 value: 127
channel 5 : control change: 1 value: 0
channel 5 : control change: 101 value: 0
channel 5 : control change: 100 value: 1
channel 5 : control change: 6 value: 64
channel 5 : control change: 38 value: 0
channel 5 : control change: 101 value: 0
channel 5 : control change: 100 value: 2
channel 5 : control change: 6 value: 64
channel 5 : control change: 101 value: 0
channel 5 : control change: 100 value: 0
channel 5 : control change: 6 value: 12
channel 5 : pitch wheel change 8192
channel 5 : control change: 101 value: 127
channel 5 : control change: 100 value: 127
channel 6 : control change: 121 value: 0
channel 6 : control change: 0 value: 0
channel 6 : control change: 32 value: 0
channel 6 : program change 0
channel 6 : control change: 10 value: 64
channel 6 : control change: 7 value: 100
channel 6 : control change: 91 value: 0
channel 6 : control change: 11 value: 127
channel 6 : control change: 1 value: 0
channel 6 : control change: 101 value: 0
channel 6 : control change: 100 value: 1
channel 6 : control change: 6 value: 64
channel 6 : control change: 38 value: 0
channel 6 : control change: 101 value: 0
channel 6 : control change: 100 value: 2
channel 6 : control change: 6 value: 64
channel 6 : control change: 101 value: 0
channel 6 : control change: 100 value: 0
channel 6 : control change: 6 value: 12
channel 6 : pitch wheel change 8192
channel 6 : control change: 101 value: 127
channel 6 : control change: 100 value: 127
channel 7 : control change: 121 value: 0
channel 7 : control change: 0 value: 0
channel 7 : control change: 32 value: 0
channel 7 : program change 0
channel 7 : control change: 10 value: 64
channel 7 : control change: 7 value: 100
channel 7 : control change: 91 value: 0
channel 7 : control change: 11 value: 127
channel 7 : control change: 1 value: 0
channel 7 : control change: 101 value: 0
channel 7 : control change: 100 value: 1
channel 7 : control change: 6 value: 64
channel 7 : control change: 38 value: 0
channel 7 : control change: 101 value: 0
channel 7 : control change: 100 value: 2
channel 7 : control change: 6 value: 64
channel 7 : control change: 101 value: 0
channel 7 : control change: 100 value: 0
channel 7 : control change: 6 value: 12
channel 7 : pitch wheel change 8192
channel 7 : control change: 101 value: 127
channel 7 : control change: 100 value: 127
channel 8 : control change: 121 value: 0
channel 8 : control change: 0 value: 0
channel 8 : control change: 32 value: 0
channel 8 : program change 0
channel 8 : control change: 10 value: 64
channel 8 : control change: 7 value: 100
channel 8 : control change: 91 value: 0
channel 8 : control change: 11 value: 127
channel 8 : control change: 1 value: 0
channel 8 : control change: 101 value: 0
channel 8 : control change: 100 value: 1
channel 8 : control change: 6 value: 64
channel 8 : control change: 38 value: 0
channel 8 : control change: 101 value: 0
channel 8 : control change: 100 value: 2
channel 8 : control change: 6 value: 64
channel 8 : control change: 101 value: 0
channel 8 : control change: 100 value: 0
channel 8 : control change: 6 value: 12
channel 8 : pitch wheel change 8192
channel 8 : control change: 101 value: 127
channel 8 : control change: 100 value: 127
channel 9 : control change: 121 value: 0
channel 9 : control change: 0 value: 0
channel 9 : control change: 32 value: 0
channel 9 : program change 0
channel 9 : control change: 10 value: 64
channel 9 : control change: 7 value: 100
channel 9 : control change: 91 value: 0
channel 9 : control change: 11 value: 127
channel 9 : control change: 1 value: 0
channel 9 : control change: 101 value: 0
channel 9 : control change: 100 value: 1
channel 9 : control change: 6 value: 64
channel 9 : control change: 38 value: 0
channel 9 : control change: 101 value: 0
channel 9 : control change: 100 value: 2
channel 9 : control change: 6 value: 64
channel 9 : control change: 101 value: 0
channel 9 : control change: 100 value: 0
channel 9 : control change: 6 value: 12
channel 9 : pitch wheel change 8192
channel 9 : control change: 101 value: 127
channel 9 : control change: 100 value: 127
channel 10 : control change: 121 value: 0
channel 10 : control change: 32 value: 0
channel 10 : program change 0
channel 10 : control change: 10 value: 64
channel 10 : control change: 7 value: 100
channel 10 : control change: 91 value: 0
channel 10 : control change: 11 value: 127
channel 10 : control change: 1 value: 0
channel 10 : control change: 101 value: 0
channel 10 : control change: 100 value: 1
channel 10 : control change: 6 value: 64
channel 10 : control change: 38 value: 0
channel 10 : control change: 101 value: 0
channel 10 : control change: 100 value: 2
channel 10 : control change: 6 value: 64
channel 10 : control change: 101 value: 0
channel 10 : control change: 100 value: 0
channel 10 : control change: 6 value: 12
channel 10 : pitch wheel change 8192
channel 10 : control change: 101 value: 127
channel 10 : control change: 100 value: 127
channel 11 : control change: 121 value: 0
channel 11 : control change: 0 value: 0
channel 11 : control change: 32 value: 0
channel 11 : program change 0
channel 11 : control change: 10 value: 64
channel 11 : control change: 7 value: 100
channel 11 : control change: 91 value: 0
channel 11 : control change: 11 value: 127
channel 11 : control change: 1 value: 0
channel 11 : control change: 101 value: 0
channel 11 : control change: 100 value: 1
channel 11 : control change: 6 value: 64
channel 11 : control change: 38 value: 0
channel 11 : control change: 101 value: 0
channel 11 : control change: 100 value: 2
channel 11 : control change: 6 value: 64
channel 11 : control change: 101 value: 0
channel 11 : control change: 100 value: 0
channel 11 : control change: 6 value: 12
channel 11 : pitch wheel change 8192
channel 11 : control change: 101 value: 127
channel 11 : control change: 100 value: 127
channel 12 : control change: 121 value: 0
channel 12 : control change: 0 value: 0
channel 12 : control change: 32 value: 0
channel 12 : program change 0
channel 12 : control change: 10 value: 64
channel 12 : control change: 7 value: 100
channel 12 : control change: 91 value: 0
channel 12 : control change: 11 value: 127
channel 12 : control change: 1 value: 0
channel 12 : control change: 101 value: 0
channel 12 : control change: 100 value: 1
channel 12 : control change: 6 value: 64
channel 12 : control change: 38 value: 0
channel 12 : control change: 101 value: 0
channel 12 : control change: 100 value: 2
channel 12 : control change: 6 value: 64
channel 12 : control change: 101 value: 0
channel 12 : control change: 100 value: 0
channel 12 : control change: 6 value: 12
channel 12 : pitch wheel change 8192
channel 12 : control change: 101 value: 127
channel 12 : control change: 100 value: 127
channel 13 : control change: 121 value: 0
channel 13 : control change: 0 value: 0
channel 13 : control change: 32 value: 0
channel 13 : program change 0
channel 13 : control change: 10 value: 64
channel 13 : control change: 7 value: 100
channel 13 : control change: 91 value: 0
channel 13 : control change: 11 value: 127
channel 13 : control change: 1 value: 0
channel 13 : control change: 101 value: 0
channel 13 : control change: 100 value: 1
channel 13 : control change: 6 value: 64
channel 13 : control change: 38 value: 0
channel 13 : control change: 101 value: 0
channel 13 : control change: 100 value: 2
channel 13 : control change: 6 value: 64
channel 13 : control change: 101 value: 0
channel 13 : control change: 100 value: 0
channel 13 : control change: 6 value: 12
channel 13 : pitch wheel change 8192
channel 13 : control change: 101 value: 127
channel 13 : control change: 100 value: 127
channel 14 : control change: 121 value: 0
channel 14 : control change: 0 value: 0
channel 14 : control change: 32 value: 0
channel 14 : program change 0
channel 14 : control change: 10 value: 64
channel 14 : control change: 7 value: 100
channel 14 : control change: 91 value: 0
channel 14 : control change: 11 value: 127
channel 14 : control change: 1 value: 0
channel 14 : control change: 101 value: 0
channel 14 : control change: 100 value: 1
channel 14 : control change: 6 value: 64
channel 14 : control change: 38 value: 0
channel 14 : control change: 101 value: 0
channel 14 : control change: 100 value: 2
channel 14 : control change: 6 value: 64
channel 14 : control change: 101 value: 0
channel 14 : control change: 100 value: 0
channel 14 : control change: 6 value: 12
channel 14 : pitch wheel change 8192
channel 14 : control change: 101 value: 127
channel 14 : control change: 100 value: 127
channel 15 : control change: 121 value: 0
channel 15 : control change: 0 value: 0
channel 15 : control change: 32 value: 0
channel 15 : program change 0
channel 15 : control change: 10 value: 64
channel 15 : control change: 7 value: 100
channel 15 : control change: 91 value: 0
channel 15 : control change: 11 value: 127
channel 15 : control change: 1 value: 0
channel 15 : control change: 101 value: 0
channel 15 : control change: 100 value: 1
channel 15 : control change: 6 value: 64
channel 15 : control change: 38 value: 0
channel 15 : control change: 101 value: 0
channel 15 : control change: 100 value: 2
channel 15 : control change: 6 value: 64
channel 15 : control change: 101 value: 0
channel 15 : control change: 100 value: 0
channel 15 : control change: 6 value: 12
channel 15 : pitch wheel change 8192
channel 15 : control change: 101 value: 127
channel 15 : control change: 100 value: 127
channel 16 : control change: 121 value: 0
channel 16 : control change: 0 value: 0
channel 16 : control change: 32 value: 0
channel 16 : program change 0
channel 16 : control change: 10 value: 64
channel 16 : control change: 7 value: 100
channel 16 : control change: 91 value: 0
channel 16 : control change: 11 value: 127
channel 16 : control change: 1 value: 0
channel 16 : control change: 101 value: 0
channel 16 : control change: 100 value: 1
channel 16 : control change: 6 value: 64
channel 16 : control change: 38 value: 0
channel 16 : control change: 101 value: 0
channel 16 : control change: 100 value: 2
channel 16 : control change: 6 value: 64
channel 16 : control change: 101 value: 0
channel 16 : control change: 100 value: 0
channel 16 : control change: 6 value: 12
channel 16 : pitch wheel change 8192
channel 16 : control change: 101 value: 127
channel 16 : control change: 100 value: 127
channel 1 : note On G3 velocity: 38
channel 1 : control change: 64 value: 69
channel 1 : control change: 64 value: 109
channel 1 : control change: 64 value: 127
channel 1 : control change: 64 value: 67
channel 1 : control change: 64 value: 27
channel 1 : control change: 64 value: 6
channel 1 : control change: 64 value: 0
channel 1 : note On C4 velocity: 59
channel 1 : note Off G3 velocity: 0
channel 1 : note Off C4 velocity: 0
channel 1 : note On C4 velocity: 62
channel 1 : control change: 64 value: 69
channel 1 : control change: 64 value: 109
channel 1 : control change: 64 value: 127
channel 1 : note Off C4 velocity: 0
channel 1 : control change: 64 value: 67
channel 1 : control change: 64 value: 27
channel 1 : control change: 64 value: 6
channel 1 : control change: 64 value: 0
channel 1 : note On E4 velocity: 89
channel 1 : control change: 64 value: 69
channel 1 : control change: 64 value: 109
channel 1 : control change: 64 value: 127
channel 1 : note On D4 velocity: 111
channel 1 : note Off E4 velocity: 0
channel 1 : note On C4 velocity: 97
channel 1 : note Off D4 velocity: 0
channel 1 : control change: 64 value: 67
channel 1 : control change: 64 value: 27
channel 1 : control change: 64 value: 6
channel 1 : note Off C4 velocity: 0
channel 1 : control change: 64 value: 0
channel 1 : note On E4 velocity: 122
channel 1 : control change: 64 value: 69
channel 1 : control change: 64 value: 109
channel 1 : control change: 64 value: 127
channel 1 : control change: 64 value: 67
channel 1 : note Off E4 velocity: 0
channel 1 : control change: 64 value: 27
channel 1 : control change: 64 value: 6
channel 1 : control change: 64 value: 0
channel 1 : control change: 64 value: 69
channel 1 : note On E4 velocity: 120
channel 1 : control change: 64 value: 109
channel 1 : control change: 64 value: 127
channel 1 : note On D4 velocity: 117
channel 1 : note Off E4 velocity: 0
channel 1 : note Off D4 velocity: 0
channel 1 : note On C4 velocity: 122
channel 1 : control change: 64 value: 67
channel 1 : control change: 64 value: 27
channel 1 : control change: 64 value: 6
channel 1 : control change: 64 value: 0
channel 1 : note Off C4 velocity: 0
channel 1 : note On A3 velocity: 61
channel 1 : control change: 64 value: 69
channel 1 : control change: 64 value: 109
channel 1 : control change: 64 value: 127
channel 1 : control change: 64 value: 67
channel 1 : control change: 64 value: 27
channel 1 : control change: 64 value: 6
channel 1 : note Off A3 velocity: 0
channel 1 : control change: 64 value: 0
channel 1 : control change: 64 value: 69
channel 1 : control change: 64 value: 109
channel 1 : control change: 64 value: 127
channel 1 : note On G3 velocity: 56
channel 1 : control change: 64 value: 67
channel 1 : control change: 64 value: 27
channel 1 : control change: 64 value: 6
channel 1 : control change: 64 value: 0
channel 1 : note Off G3 velocity: 0
channel 2 : control change: 121 value: 0
channel 2 : control change: 0 value: 0
channel 2 : control change: 32 value: 0
channel 2 : program change 0
channel 2 : control change: 10 value: 64
channel 2 : control change: 7 value: 100
channel 2 : control change: 91 value: 0
channel 2 : control change: 11 value: 127
channel 2 : control change: 1 value: 0
channel 2 : control change: 101 value: 0
channel 2 : control change: 100 value: 1
channel 2 : control change: 6 value: 64
channel 2 : control change: 38 value: 0
channel 2 : control change: 101 value: 0
channel 2 : control change: 100 value: 2
channel 2 : control change: 6 value: 64
channel 2 : control change: 101 value: 0
channel 2 : control change: 100 value: 0
channel 2 : control change: 6 value: 12
channel 2 : pitch wheel change 8192
channel 2 : control change: 101 value: 127
channel 2 : control change: 100 value: 127
channel 3 : control change: 121 value: 0
channel 3 : control change: 0 value: 0
channel 3 : control change: 32 value: 0
channel 3 : program change 0
channel 3 : control change: 10 value: 64
channel 3 : control change: 7 value: 100
channel 3 : control change: 91 value: 0
channel 3 : control change: 11 value: 127
channel 3 : control change: 1 value: 0
channel 3 : control change: 101 value: 0
channel 3 : control change: 100 value: 1
channel 3 : control change: 6 value: 64
channel 3 : control change: 38 value: 0
channel 3 : control change: 101 value: 0
channel 3 : control change: 100 value: 2
channel 3 : control change: 6 value: 64
channel 3 : control change: 101 value: 0
channel 3 : control change: 100 value: 0
channel 3 : control change: 6 value: 12
channel 3 : pitch wheel change 8192
channel 3 : control change: 101 value: 127
channel 3 : control change: 100 value: 127
channel 4 : control change: 121 value: 0
channel 4 : control change: 0 value: 0
channel 4 : control change: 32 value: 0
channel 4 : program change 0
channel 4 : control change: 10 value: 64
channel 4 : control change: 7 value: 100
channel 4 : control change: 91 value: 0
channel 4 : control change: 11 value: 127
channel 4 : control change: 1 value: 0
channel 4 : control change: 101 value: 0
channel 4 : control change: 100 value: 1
channel 4 : control change: 6 value: 64
channel 4 : control change: 38 value: 0
channel 4 : control change: 101 value: 0
channel 4 : control change: 100 value: 2
channel 4 : control change: 6 value: 64
channel 4 : control change: 101 value: 0
channel 4 : control change: 100 value: 0
channel 4 : control change: 6 value: 12
channel 4 : pitch wheel change 8192
channel 4 : control change: 101 value: 127
channel 4 : control change: 100 value: 127
channel 5 : control change: 121 value: 0
channel 5 : control change: 0 value: 0
channel 5 : control change: 32 value: 0
channel 5 : program change 0
channel 5 : control change: 10 value: 64
channel 5 : control change: 7 value: 100
channel 5 : control change: 91 value: 0
channel 5 : control change: 11 value: 127
channel 5 : control change: 1 value: 0
channel 5 : control change: 101 value: 0
channel 5 : control change: 100 value: 1
channel 5 : control change: 6 value: 64
channel 5 : control change: 38 value: 0
channel 5 : control change: 101 value: 0
channel 5 : control change: 100 value: 2
channel 5 : control change: 6 value: 64
channel 5 : control change: 101 value: 0
channel 5 : control change: 100 value: 0
channel 5 : control change: 6 value: 12
channel 5 : pitch wheel change 8192
channel 5 : control change: 101 value: 127
channel 5 : control change: 100 value: 127
channel 6 : control change: 121 value: 0
channel 6 : control change: 0 value: 0
channel 6 : control change: 32 value: 0
channel 6 : program change 0
channel 6 : control change: 10 value: 64
channel 6 : control change: 7 value: 100
channel 6 : control change: 91 value: 0
channel 6 : control change: 11 value: 127
channel 6 : control change: 1 value: 0
channel 6 : control change: 101 value: 0
channel 6 : control change: 100 value: 1
channel 6 : control change: 6 value: 64
channel 6 : control change: 38 value: 0
channel 6 : control change: 101 value: 0
channel 6 : control change: 100 value: 2
channel 6 : control change: 6 value: 64
channel 6 : control change: 101 value: 0
channel 6 : control change: 100 value: 0
channel 6 : control change: 6 value: 12
channel 6 : pitch wheel change 8192
channel 6 : control change: 101 value: 127
channel 6 : control change: 100 value: 127
channel 7 : control change: 121 value: 0
channel 7 : control change: 0 value: 0
channel 7 : control change: 32 value: 0
channel 7 : program change 0
channel 7 : control change: 10 value: 64
channel 7 : control change: 7 value: 100
channel 7 : control change: 91 value: 0
channel 7 : control change: 11 value: 127
channel 7 : control change: 1 value: 0
channel 7 : control change: 101 value: 0
channel 7 : control change: 100 value: 1
channel 7 : control change: 6 value: 64
channel 7 : control change: 38 value: 0
channel 7 : control change: 101 value: 0
channel 7 : control change: 100 value: 2
channel 7 : control change: 6 value: 64
channel 7 : control change: 101 value: 0
channel 7 : control change: 100 value: 0
channel 7 : control change: 6 value: 12
channel 7 : pitch wheel change 8192
channel 7 : control change: 101 value: 127
channel 7 : control change: 100 value: 127
channel 8 : control change: 121 value: 0
channel 8 : control change: 0 value: 0
channel 8 : control change: 32 value: 0
channel 8 : program change 0
channel 8 : control change: 10 value: 64
channel 8 : control change: 7 value: 100
channel 8 : control change: 91 value: 0
channel 8 : control change: 11 value: 127
channel 8 : control change: 1 value: 0
channel 8 : control change: 101 value: 0
channel 8 : control change: 100 value: 1
channel 8 : control change: 6 value: 64
channel 8 : control change: 38 value: 0
channel 8 : control change: 101 value: 0
channel 8 : control change: 100 value: 2
channel 8 : control change: 6 value: 64
channel 8 : control change: 101 value: 0
channel 8 : control change: 100 value: 0
channel 8 : control change: 6 value: 12
channel 8 : pitch wheel change 8192
channel 8 : control change: 101 value: 127
channel 8 : control change: 100 value: 127
channel 9 : control change: 121 value: 0
channel 9 : control change: 0 value: 0
channel 9 : control change: 32 value: 0
channel 9 : program change 0
channel 9 : control change: 10 value: 64
channel 9 : control change: 7 value: 100
channel 9 : control change: 91 value: 0
channel 9 : control change: 11 value: 127
channel 9 : control change: 1 value: 0
channel 9 : control change: 101 value: 0
channel 9 : control change: 100 value: 1
channel 9 : control change: 6 value: 64
channel 9 : control change: 38 value: 0
channel 9 : control change: 101 value: 0
channel 9 : control change: 100 value: 2
channel 9 : control change: 6 value: 64
channel 9 : control change: 101 value: 0
channel 9 : control change: 100 value: 0
channel 9 : control change: 6 value: 12
channel 9 : pitch wheel change 8192
channel 9 : control change: 101 value: 127
channel 9 : control change: 100 value: 127
channel 10 : control change: 121 value: 0
channel 10 : control change: 32 value: 0
channel 10 : program change 0
channel 10 : control change: 10 value: 64
channel 10 : control change: 7 value: 100
channel 10 : control change: 91 value: 0
channel 10 : control change: 11 value: 127
channel 10 : control change: 1 value: 0
channel 10 : control change: 101 value: 0
channel 10 : control change: 100 value: 1
channel 10 : control change: 6 value: 64
channel 10 : control change: 38 value: 0
channel 10 : control change: 101 value: 0
channel 10 : control change: 100 value: 2
channel 10 : control change: 6 value: 64
channel 10 : control change: 101 value: 0
channel 10 : control change: 100 value: 0
channel 10 : control change: 6 value: 12
channel 10 : pitch wheel change 8192
channel 10 : control change: 101 value: 127
channel 10 : control change: 100 value: 127
channel 11 : control change: 121 value: 0
channel 11 : control change: 0 value: 0
channel 11 : control change: 32 value: 0
channel 11 : program change 0
channel 11 : control change: 10 value: 64
channel 11 : control change: 7 value: 100
channel 11 : control change: 91 value: 0
channel 11 : control change: 11 value: 127
channel 11 : control change: 1 value: 0
channel 11 : control change: 101 value: 0
channel 11 : control change: 100 value: 1
channel 11 : control change: 6 value: 64
channel 11 : control change: 38 value: 0
channel 11 : control change: 101 value: 0
channel 11 : control change: 100 value: 2
channel 11 : control change: 6 value: 64
channel 11 : control change: 101 value: 0
channel 11 : control change: 100 value: 0
channel 11 : control change: 6 value: 12
channel 11 : pitch wheel change 8192
channel 11 : control change: 101 value: 127
channel 11 : control change: 100 value: 127
channel 12 : control change: 121 value: 0
channel 12 : control change: 0 value: 0
channel 12 : control change: 32 value: 0
channel 12 : program change 0
channel 12 : control change: 10 value: 64
channel 12 : control change: 7 value: 100
channel 12 : control change: 91 value: 0
channel 12 : control change: 11 value: 127
channel 12 : control change: 1 value: 0
channel 12 : control change: 101 value: 0
channel 12 : control change: 100 value: 1
channel 12 : control change: 6 value: 64
channel 12 : control change: 38 value: 0
channel 12 : control change: 101 value: 0
channel 12 : control change: 100 value: 2
channel 12 : control change: 6 value: 64
channel 12 : control change: 101 value: 0
channel 12 : control change: 100 value: 0
channel 12 : control change: 6 value: 12
channel 12 : pitch wheel change 8192
channel 12 : control change: 101 value: 127
channel 12 : control change: 100 value: 127
channel 13 : control change: 121 value: 0
channel 13 : control change: 0 value: 0
channel 13 : control change: 32 value: 0
channel 13 : program change 0
channel 13 : control change: 10 value: 64
channel 13 : control change: 7 value: 100
channel 13 : control change: 91 value: 0
channel 13 : control change: 11 value: 127
channel 13 : control change: 1 value: 0
channel 13 : control change: 101 value: 0
channel 13 : control change: 100 value: 1
channel 13 : control change: 6 value: 64
channel 13 : control change: 38 value: 0
channel 13 : control change: 101 value: 0
channel 13 : control change: 100 value: 2
channel 13 : control change: 6 value: 64
channel 13 : control change: 101 value: 0
channel 13 : control change: 100 value: 0
channel 13 : control change: 6 value: 12
channel 13 : pitch wheel change 8192
channel 13 : control change: 101 value: 127
channel 13 : control change: 100 value: 127
channel 14 : control change: 121 value: 0
channel 14 : control change: 0 value: 0
channel 14 : control change: 32 value: 0
channel 14 : program change 0
channel 14 : control change: 10 value: 64
channel 14 : control change: 7 value: 100
channel 14 : control change: 91 value: 0
channel 14 : control change: 11 value: 127
channel 14 : control change: 1 value: 0
channel 14 : control change: 101 value: 0
channel 14 : control change: 100 value: 1
channel 14 : control change: 6 value: 64
channel 14 : control change: 38 value: 0
channel 14 : control change: 101 value: 0
channel 14 : control change: 100 value: 2
channel 14 : control change: 6 value: 64
channel 14 : control change: 101 value: 0
channel 14 : control change: 100 value: 0
channel 14 : control change: 6 value: 12
channel 14 : pitch wheel change 8192
channel 14 : control change: 101 value: 127
channel 14 : control change: 100 value: 127
channel 15 : control change: 121 value: 0
channel 15 : control change: 0 value: 0
channel 15 : control change: 32 value: 0
channel 15 : program change 0
channel 15 : control change: 10 value: 64
channel 15 : control change: 7 value: 100
channel 15 : control change: 91 value: 0
channel 15 : control change: 11 value: 127
channel 15 : control change: 1 value: 0
channel 15 : control change: 101 value: 0
channel 15 : control change: 100 value: 1
channel 15 : control change: 6 value: 64
channel 15 : control change: 38 value: 0
channel 15 : control change: 101 value: 0
channel 15 : control change: 100 value: 2
channel 15 : control change: 6 value: 64
channel 15 : control change: 101 value: 0
channel 15 : control change: 100 value: 0
channel 15 : control change: 6 value: 12
channel 15 : pitch wheel change 8192
channel 15 : control change: 101 value: 127
channel 15 : control change: 100 value: 127
channel 16 : control change: 121 value: 0
channel 16 : control change: 0 value: 0
channel 16 : control change: 32 value: 0
channel 16 : program change 0
channel 16 : control change: 10 value: 64
channel 16 : control change: 7 value: 100
channel 16 : control change: 91 value: 0
channel 16 : control change: 11 value: 127
channel 16 : control change: 1 value: 0
channel 16 : control change: 101 value: 0
channel 16 : control change: 100 value: 1
channel 16 : control change: 6 value: 64
channel 16 : control change: 38 value: 0
channel 16 : control change: 101 value: 0
channel 16 : control change: 100 value: 2
channel 16 : control change: 6 value: 64
channel 16 : control change: 101 value: 0
channel 16 : control change: 100 value: 0
channel 16 : control change: 6 value: 12
channel 16 : pitch wheel change 8192
channel 16 : control change: 101 value: 127
channel 16 : control change: 100 value: 127
channel 1 : note On G3 velocity: 112
channel 1 : note On C4 velocity: 124
channel 1 : note Off G3 velocity: 0
channel 1 : note Off C4 velocity: 0
channel 1 : note On C4 velocity: 127
channel 1 : control change: 64 value: 69
channel 1 : control change: 64 value: 109
channel 1 : control change: 64 value: 127
channel 1 : note Off C4 velocity: 0
channel 1 : control change: 64 value: 67
channel 1 : control change: 64 value: 27
channel 1 : control change: 64 value: 6
channel 1 : control change: 64 value: 0
channel 1 : note On E4 velocity: 124
channel 1 : control change: 64 value: 69
channel 1 : control change: 64 value: 109
channel 1 : control change: 64 value: 127
channel 1 : note On D4 velocity: 122
channel 1 : note Off E4 velocity: 0
channel 1 : note Off D4 velocity: 0
channel 1 : note On C4 velocity: 127
channel 1 : control change: 64 value: 67
channel 1 : note Off C4 velocity: 0
channel 1 : control change: 64 value: 27
channel 1 : control change: 64 value: 6
channel 1 : control change: 64 value: 0
channel 1 : note On E4 velocity: 127
channel 1 : control change: 64 value: 69
channel 1 : control change: 64 value: 109
channel 1 : control change: 64 value: 127
channel 1 : note Off E4 velocity: 0
channel 1 : control change: 64 value: 67
channel 1 : control change: 64 value: 27
channel 1 : control change: 64 value: 6
channel 1 : control change: 64 value: 0
channel 1 : note On E4 velocity: 127
channel 1 : note On D4 velocity: 102
channel 1 : note Off E4 velocity: 0
channel 1 : note Off D4 velocity: 0
channel 1 : note On C4 velocity: 65
channel 1 : control change: 64 value: 69
channel 1 : control change: 64 value: 109
channel 1 : control change: 64 value: 127
channel 1 : note Off C4 velocity: 0
channel 1 : control change: 64 value: 67
channel 1 : control change: 64 value: 27
channel 1 : control change: 64 value: 6
channel 1 : control change: 64 value: 0
channel 1 : note On A3 velocity: 127
channel 1 : control change: 64 value: 69
channel 1 : note Off A3 velocity: 0
channel 1 : control change: 64 value: 109
channel 1 : control change: 64 value: 127
channel 1 : note On G3 velocity: 50
channel 1 : note Off G3 velocity: 0
channel 1 : note On G3 velocity: 97
channel 1 : note Off G3 velocity: 0
channel 1 : control change: 64 value: 67
channel 1 : control change: 64 value: 27
channel 1 : control change: 64 value: 6
channel 1 : control change: 64 value: 0
channel 2 : control change: 121 value: 0
channel 2 : control change: 0 value: 0
channel 2 : control change: 32 value: 0
channel 2 : program change 0
channel 2 : control change: 10 value: 64
channel 2 : control change: 7 value: 100
channel 2 : control change: 91 value: 0
channel 2 : control change: 11 value: 127
channel 2 : control change: 1 value: 0
channel 2 : control change: 101 value: 0
channel 2 : control change: 100 value: 1
channel 2 : control change: 6 value: 64
channel 2 : control change: 38 value: 0
channel 2 : control change: 101 value: 0
channel 2 : control change: 100 value: 2
channel 2 : control change: 6 value: 64
channel 2 : control change: 101 value: 0
channel 2 : control change: 100 value: 0
channel 2 : control change: 6 value: 12
channel 2 : pitch wheel change 8192
channel 2 : control change: 101 value: 127
channel 2 : control change: 100 value: 127
channel 3 : control change: 121 value: 0
channel 3 : control change: 0 value: 0
channel 3 : control change: 32 value: 0
channel 3 : program change 0
channel 3 : control change: 10 value: 64
channel 3 : control change: 7 value: 100
channel 3 : control change: 91 value: 0
channel 3 : control change: 11 value: 127
channel 3 : control change: 1 value: 0
channel 3 : control change: 101 value: 0
channel 3 : control change: 100 value: 1
channel 3 : control change: 6 value: 64
channel 3 : control change: 38 value: 0
channel 3 : control change: 101 value: 0
channel 3 : control change: 100 value: 2
channel 3 : control change: 6 value: 64
channel 3 : control change: 101 value: 0
channel 3 : control change: 100 value: 0
channel 3 : control change: 6 value: 12
channel 3 : pitch wheel change 8192
channel 3 : control change: 101 value: 127
channel 3 : control change: 100 value: 127
channel 4 : control change: 121 value: 0
channel 4 : control change: 0 value: 0
channel 4 : control change: 32 value: 0
channel 4 : program change 0
channel 4 : control change: 10 value: 64
channel 4 : control change: 7 value: 100
channel 4 : control change: 91 value: 0
channel 4 : control change: 11 value: 127
channel 4 : control change: 1 value: 0
channel 4 : control change: 101 value: 0
channel 4 : control change: 100 value: 1
channel 4 : control change: 6 value: 64
channel 4 : control change: 38 value: 0
channel 4 : control change: 101 value: 0
channel 4 : control change: 100 value: 2
channel 4 : control change: 6 value: 64
channel 4 : control change: 101 value: 0
channel 4 : control change: 100 value: 0
channel 4 : control change: 6 value: 12
channel 4 : pitch wheel change 8192
channel 4 : control change: 101 value: 127
channel 4 : control change: 100 value: 127
channel 5 : control change: 121 value: 0
channel 5 : control change: 0 value: 0
channel 5 : control change: 32 value: 0
channel 5 : program change 0
channel 5 : control change: 10 value: 64
channel 5 : control change: 7 value: 100
channel 5 : control change: 91 value: 0
channel 5 : control change: 11 value: 127
channel 5 : control change: 1 value: 0
channel 5 : control change: 101 value: 0
channel 5 : control change: 100 value: 1
channel 5 : control change: 6 value: 64
channel 5 : control change: 38 value: 0
channel 5 : control change: 101 value: 0
channel 5 : control change: 100 value: 2
channel 5 : control change: 6 value: 64
channel 5 : control change: 101 value: 0
channel 5 : control change: 100 value: 0
channel 5 : control change: 6 value: 12
channel 5 : pitch wheel change 8192
channel 5 : control change: 101 value: 127
channel 5 : control change: 100 value: 127
channel 6 : control change: 121 value: 0
channel 6 : control change: 0 value: 0
channel 6 : control change: 32 value: 0
channel 6 : program change 0
channel 6 : control change: 10 value: 64
channel 6 : control change: 7 value: 100
channel 6 : control change: 91 value: 0
channel 6 : control change: 11 value: 127
channel 6 : control change: 1 value: 0
channel 6 : control change: 101 value: 0
channel 6 : control change: 100 value: 1
channel 6 : control change: 6 value: 64
channel 6 : control change: 38 value: 0
channel 6 : control change: 101 value: 0
channel 6 : control change: 100 value: 2
channel 6 : control change: 6 value: 64
channel 6 : control change: 101 value: 0
channel 6 : control change: 100 value: 0
channel 6 : control change: 6 value: 12
channel 6 : pitch wheel change 8192
channel 6 : control change: 101 value: 127
channel 6 : control change: 100 value: 127
channel 7 : control change: 121 value: 0
channel 7 : control change: 0 value: 0
channel 7 : control change: 32 value: 0
channel 7 : program change 0
channel 7 : control change: 10 value: 64
channel 7 : control change: 7 value: 100
channel 7 : control change: 91 value: 0
channel 7 : control change: 11 value: 127
channel 7 : control change: 1 value: 0
channel 7 : control change: 101 value: 0
channel 7 : control change: 100 value: 1
channel 7 : control change: 6 value: 64
channel 7 : control change: 38 value: 0
channel 7 : control change: 101 value: 0
channel 7 : control change: 100 value: 2
channel 7 : control change: 6 value: 64
channel 7 : control change: 101 value: 0
channel 7 : control change: 100 value: 0
channel 7 : control change: 6 value: 12
channel 7 : pitch wheel change 8192
channel 7 : control change: 101 value: 127
channel 7 : control change: 100 value: 127
channel 8 : control change: 121 value: 0
channel 8 : control change: 0 value: 0
channel 8 : control change: 32 value: 0
channel 8 : program change 0
channel 8 : control change: 10 value: 64
channel 8 : control change: 7 value: 100
channel 8 : control change: 91 value: 0
channel 8 : control change: 11 value: 127
channel 8 : control change: 1 value: 0
channel 8 : control change: 101 value: 0
channel 8 : control change: 100 value: 1
channel 8 : control change: 6 value: 64
channel 8 : control change: 38 value: 0
channel 8 : control change: 101 value: 0
channel 8 : control change: 100 value: 2
channel 8 : control change: 6 value: 64
channel 8 : control change: 101 value: 0
channel 8 : control change: 100 value: 0
channel 8 : control change: 6 value: 12
channel 8 : pitch wheel change 8192
channel 8 : control change: 101 value: 127
channel 8 : control change: 100 value: 127
channel 9 : control change: 121 value: 0
channel 9 : control change: 0 value: 0
channel 9 : control change: 32 value: 0
channel 9 : program change 0
channel 9 : control change: 10 value: 64
channel 9 : control change: 7 value: 100
channel 9 : control change: 91 value: 0
channel 9 : control change: 11 value: 127
channel 9 : control change: 1 value: 0
channel 9 : control change: 101 value: 0
channel 9 : control change: 100 value: 1
channel 9 : control change: 6 value: 64
channel 9 : control change: 38 value: 0
channel 9 : control change: 101 value: 0
channel 9 : control change: 100 value: 2
channel 9 : control change: 6 value: 64
channel 9 : control change: 101 value: 0
channel 9 : control change: 100 value: 0
channel 9 : control change: 6 value: 12
channel 9 : pitch wheel change 8192
channel 9 : control change: 101 value: 127
channel 9 : control change: 100 value: 127
channel 10 : control change: 121 value: 0
channel 10 : control change: 32 value: 0
channel 10 : program change 0
channel 10 : control change: 10 value: 64
channel 10 : control change: 7 value: 100
channel 10 : control change: 91 value: 0
channel 10 : control change: 11 value: 127
channel 10 : control change: 1 value: 0
channel 10 : control change: 101 value: 0
channel 10 : control change: 100 value: 1
channel 10 : control change: 6 value: 64
channel 10 : control change: 38 value: 0
channel 10 : control change: 101 value: 0
channel 10 : control change: 100 value: 2
channel 10 : control change: 6 value: 64
channel 10 : control change: 101 value: 0
channel 10 : control change: 100 value: 0
channel 10 : control change: 6 value: 12
channel 10 : pitch wheel change 8192
channel 10 : control change: 101 value: 127
channel 10 : control change: 100 value: 127
channel 11 : control change: 121 value: 0
channel 11 : control change: 0 value: 0
channel 11 : control change: 32 value: 0
channel 11 : program change 0
channel 11 : control change: 10 value: 64
channel 11 : control change: 7 value: 100
channel 11 : control change: 91 value: 0
channel 11 : control change: 11 value: 127
channel 11 : control change: 1 value: 0
channel 11 : control change: 101 value: 0
channel 11 : control change: 100 value: 1
channel 11 : control change: 6 value: 64
channel 11 : control change: 38 value: 0
channel 11 : control change: 101 value: 0
channel 11 : control change: 100 value: 2
channel 11 : control change: 6 value: 64
channel 11 : control change: 101 value: 0
channel 11 : control change: 100 value: 0
channel 11 : control change: 6 value: 12
channel 11 : pitch wheel change 8192
channel 11 : control change: 101 value: 127
channel 11 : control change: 100 value: 127
channel 12 : control change: 121 value: 0
channel 12 : control change: 0 value: 0
channel 12 : control change: 32 value: 0
channel 12 : program change 0
channel 12 : control change: 10 value: 64
channel 12 : control change: 7 value: 100
channel 12 : control change: 91 value: 0
channel 12 : control change: 11 value: 127
channel 12 : control change: 1 value: 0
channel 12 : control change: 101 value: 0
channel 12 : control change: 100 value: 1
channel 12 : control change: 6 value: 64
channel 12 : control change: 38 value: 0
channel 12 : control change: 101 value: 0
channel 12 : control change: 100 value: 2
channel 12 : control change: 6 value: 64
channel 12 : control change: 101 value: 0
channel 12 : control change: 100 value: 0
channel 12 : control change: 6 value: 12
channel 12 : pitch wheel change 8192
channel 12 : control change: 101 value: 127
channel 12 : control change: 100 value: 127
channel 13 : control change: 121 value: 0
channel 13 : control change: 0 value: 0
channel 13 : control change: 32 value: 0
channel 13 : program change 0
channel 13 : control change: 10 value: 64
channel 13 : control change: 7 value: 100
channel 13 : control change: 91 value: 0
channel 13 : control change: 11 value: 127
channel 13 : control change: 1 value: 0
channel 13 : control change: 101 value: 0
channel 13 : control change: 100 value: 1
channel 13 : control change: 6 value: 64
channel 13 : control change: 38 value: 0
channel 13 : control change: 101 value: 0
channel 13 : control change: 100 value: 2
channel 13 : control change: 6 value: 64
channel 13 : control change: 101 value: 0
channel 13 : control change: 100 value: 0
channel 13 : control change: 6 value: 12
channel 13 : pitch wheel change 8192
channel 13 : control change: 101 value: 127
channel 13 : control change: 100 value: 127
channel 14 : control change: 121 value: 0
channel 14 : control change: 0 value: 0
channel 14 : control change: 32 value: 0
channel 14 : program change 0
channel 14 : control change: 10 value: 64
channel 14 : control change: 7 value: 100
channel 14 : control change: 91 value: 0
channel 14 : control change: 11 value: 127
channel 14 : control change: 1 value: 0
channel 14 : control change: 101 value: 0
channel 14 : control change: 100 value: 1
channel 14 : control change: 6 value: 64
channel 14 : control change: 38 value: 0
channel 14 : control change: 101 value: 0
channel 14 : control change: 100 value: 2
channel 14 : control change: 6 value: 64
channel 14 : control change: 101 value: 0
channel 14 : control change: 100 value: 0
channel 14 : control change: 6 value: 12
channel 14 : pitch wheel change 8192
channel 14 : control change: 101 value: 127
channel 14 : control change: 100 value: 127
channel 15 : control change: 121 value: 0
channel 15 : control change: 0 value: 0
channel 15 : control change: 32 value: 0
channel 15 : program change 0
channel 15 : control change: 10 value: 64
channel 15 : control change: 7 value: 100
channel 15 : control change: 91 value: 0
channel 15 : control change: 11 value: 127
channel 15 : control change: 1 value: 0
channel 15 : control change: 101 value: 0
channel 15 : control change: 100 value: 1
channel 15 : control change: 6 value: 64
channel 15 : control change: 38 value: 0
channel 15 : control change: 101 value: 0
channel 15 : control change: 100 value: 2
channel 15 : control change: 6 value: 64
channel 15 : control change: 101 value: 0
channel 15 : control change: 100 value: 0
channel 15 : control change: 6 value: 12
channel 15 : pitch wheel change 8192
channel 15 : control change: 101 value: 127
channel 15 : control change: 100 value: 127
channel 16 : control change: 121 value: 0
channel 16 : control change: 0 value: 0
channel 16 : control change: 32 value: 0
channel 16 : program change 0
channel 16 : control change: 10 value: 64
channel 16 : control change: 7 value: 100
channel 16 : control change: 91 value: 0
channel 16 : control change: 11 value: 127
channel 16 : control change: 1 value: 0
channel 16 : control change: 101 value: 0
channel 16 : control change: 100 value: 1
channel 16 : control change: 6 value: 64
channel 16 : control change: 38 value: 0
channel 16 : control change: 101 value: 0
channel 16 : control change: 100 value: 2
channel 16 : control change: 6 value: 64
channel 16 : control change: 101 value: 0
channel 16 : control change: 100 value: 0
channel 16 : control change: 6 value: 12
channel 16 : pitch wheel change 8192
channel 16 : control change: 101 value: 127
channel 16 : control change: 100 value: 127
channel 1 : note On G3 velocity: 34
channel 1 : note On C4 velocity: 46
channel 1 : note Off G3 velocity: 0
channel 1 : note Off C4 velocity: 0
channel 1 : note On C4 velocity: 62
channel 1 : note Off C4 velocity: 0
channel 1 : note On E4 velocity: 51
channel 1 : note On D4 velocity: 57
channel 1 : note Off E4 velocity: 0
channel 1 : note On C4 velocity: 68
channel 1 : note Off D4 velocity: 0
channel 1 : note On E4 velocity: 61
channel 1 : note Off C4 velocity: 0
channel 1 : note Off E4 velocity: 0
channel 1 : note On E4 velocity: 68
channel 1 : note On D4 velocity: 66
channel 1 : note Off E4 velocity: 0
channel 1 : note Off D4 velocity: 0
channel 1 : note On C4 velocity: 67
channel 1 : note On A3 velocity: 66
channel 1 : note Off C4 velocity: 0
channel 1 : note On G3 velocity: 61
channel 1 : note Off A3 velocity: 0
channel 1 : note Off G3 velocity: 0
channel 2 : control change: 121 value: 0
channel 2 : control change: 0 value: 0
channel 2 : control change: 32 value: 0
channel 2 : program change 0
channel 2 : control change: 10 value: 64
channel 2 : control change: 7 value: 100
channel 2 : control change: 91 value: 0
channel 2 : control change: 11 value: 127
channel 2 : control change: 1 value: 0
channel 2 : control change: 101 value: 0
channel 2 : control change: 100 value: 1
channel 2 : control change: 6 value: 64
channel 2 : control change: 38 value: 0
channel 2 : control change: 101 value: 0
channel 2 : control change: 100 value: 2
channel 2 : control change: 6 value: 64
channel 2 : control change: 101 value: 0
channel 2 : control change: 100 value: 0
channel 2 : control change: 6 value: 12
channel 2 : pitch wheel change 8192
channel 2 : control change: 101 value: 127
channel 2 : control change: 100 value: 127
channel 3 : control change: 121 value: 0
channel 3 : control change: 0 value: 0
channel 3 : control change: 32 value: 0
channel 3 : program change 0
channel 3 : control change: 10 value: 64
channel 3 : control change: 7 value: 100
channel 3 : control change: 91 value: 0
channel 3 : control change: 11 value: 127
channel 3 : control change: 1 value: 0
channel 3 : control change: 101 value: 0
channel 3 : control change: 100 value: 1
channel 3 : control change: 6 value: 64
channel 3 : control change: 38 value: 0
channel 3 : control change: 101 value: 0
channel 3 : control change: 100 value: 2
channel 3 : control change: 6 value: 64
channel 3 : control change: 101 value: 0
channel 3 : control change: 100 value: 0
channel 3 : control change: 6 value: 12
channel 3 : pitch wheel change 8192
channel 3 : control change: 101 value: 127
channel 3 : control change: 100 value: 127
channel 4 : control change: 121 value: 0
channel 4 : control change: 0 value: 0
channel 4 : control change: 32 value: 0
channel 4 : program change 0
channel 4 : control change: 10 value: 64
channel 4 : control change: 7 value: 100
channel 4 : control change: 91 value: 0
channel 4 : control change: 11 value: 127
channel 4 : control change: 1 value: 0
channel 4 : control change: 101 value: 0
channel 4 : control change: 100 value: 1
channel 4 : control change: 6 value: 64
channel 4 : control change: 38 value: 0
channel 4 : control change: 101 value: 0
channel 4 : control change: 100 value: 2
channel 4 : control change: 6 value: 64
channel 4 : control change: 101 value: 0
channel 4 : control change: 100 value: 0
channel 4 : control change: 6 value: 12
channel 4 : pitch wheel change 8192
channel 4 : control change: 101 value: 127
channel 4 : control change: 100 value: 127
channel 5 : control change: 121 value: 0
channel 5 : control change: 0 value: 0
channel 5 : control change: 32 value: 0
channel 5 : program change 0
channel 5 : control change: 10 value: 64
channel 5 : control change: 7 value: 100
channel 5 : control change: 91 value: 0
channel 5 : control change: 11 value: 127
channel 5 : control change: 1 value: 0
channel 5 : control change: 101 value: 0
channel 5 : control change: 100 value: 1
channel 5 : control change: 6 value: 64
channel 5 : control change: 38 value: 0
channel 5 : control change: 101 value: 0
channel 5 : control change: 100 value: 2
channel 5 : control change: 6 value: 64
channel 5 : control change: 101 value: 0
channel 5 : control change: 100 value: 0
channel 5 : control change: 6 value: 12
channel 5 : pitch wheel change 8192
channel 5 : control change: 101 value: 127
channel 5 : control change: 100 value: 127
channel 6 : control change: 121 value: 0
channel 6 : control change: 0 value: 0
channel 6 : control change: 32 value: 0
channel 6 : program change 0
channel 6 : control change: 10 value: 64
channel 6 : control change: 7 value: 100
channel 6 : control change: 91 value: 0
channel 6 : control change: 11 value: 127
channel 6 : control change: 1 value: 0
channel 6 : control change: 101 value: 0
channel 6 : control change: 100 value: 1
channel 6 : control change: 6 value: 64
channel 6 : control change: 38 value: 0
channel 6 : control change: 101 value: 0
channel 6 : control change: 100 value: 2
channel 6 : control change: 6 value: 64
channel 6 : control change: 101 value: 0
channel 6 : control change: 100 value: 0
channel 6 : control change: 6 value: 12
channel 6 : pitch wheel change 8192
channel 6 : control change: 101 value: 127
channel 6 : control change: 100 value: 127
channel 7 : control change: 121 value: 0
channel 7 : control change: 0 value: 0
channel 7 : control change: 32 value: 0
channel 7 : program change 0
channel 7 : control change: 10 value: 64
channel 7 : control change: 7 value: 100
channel 7 : control change: 91 value: 0
channel 7 : control change: 11 value: 127
channel 7 : control change: 1 value: 0
channel 7 : control change: 101 value: 0
channel 7 : control change: 100 value: 1
channel 7 : control change: 6 value: 64
channel 7 : control change: 38 value: 0
channel 7 : control change: 101 value: 0
channel 7 : control change: 100 value: 2
channel 7 : control change: 6 value: 64
channel 7 : control change: 101 value: 0
channel 7 : control change: 100 value: 0
channel 7 : control change: 6 value: 12
channel 7 : pitch wheel change 8192
channel 7 : control change: 101 value: 127
channel 7 : control change: 100 value: 127
channel 8 : control change: 121 value: 0
channel 8 : control change: 0 value: 0
channel 8 : control change: 32 value: 0
channel 8 : program change 0
channel 8 : control change: 10 value: 64
channel 8 : control change: 7 value: 100
channel 8 : control change: 91 value: 0
channel 8 : control change: 11 value: 127
channel 8 : control change: 1 value: 0
channel 8 : control change: 101 value: 0
channel 8 : control change: 100 value: 1
channel 8 : control change: 6 value: 64
channel 8 : control change: 38 value: 0
channel 8 : control change: 101 value: 0
channel 8 : control change: 100 value: 2
channel 8 : control change: 6 value: 64
channel 8 : control change: 101 value: 0
channel 8 : control change: 100 value: 0
channel 8 : control change: 6 value: 12
channel 8 : pitch wheel change 8192
channel 8 : control change: 101 value: 127
channel 8 : control change: 100 value: 127
channel 9 : control change: 121 value: 0
channel 9 : control change: 0 value: 0
channel 9 : control change: 32 value: 0
channel 9 : program change 0
channel 9 : control change: 10 value: 64
channel 9 : control change: 7 value: 100
channel 9 : control change: 91 value: 0
channel 9 : control change: 11 value: 127
channel 9 : control change: 1 value: 0
channel 9 : control change: 101 value: 0
channel 9 : control change: 100 value: 1
channel 9 : control change: 6 value: 64
channel 9 : control change: 38 value: 0
channel 9 : control change: 101 value: 0
channel 9 : control change: 100 value: 2
channel 9 : control change: 6 value: 64
channel 9 : control change: 101 value: 0
channel 9 : control change: 100 value: 0
channel 9 : control change: 6 value: 12
channel 9 : pitch wheel change 8192
channel 9 : control change: 101 value: 127
channel 9 : control change: 100 value: 127
channel 10 : control change: 121 value: 0
channel 10 : control change: 32 value: 0
channel 10 : program change 0
channel 10 : control change: 10 value: 64
channel 10 : control change: 7 value: 100
channel 10 : control change: 91 value: 0
channel 10 : control change: 11 value: 127
channel 10 : control change: 1 value: 0
channel 10 : control change: 101 value: 0
channel 10 : control change: 100 value: 1
channel 10 : control change: 6 value: 64
channel 10 : control change: 38 value: 0
channel 10 : control change: 101 value: 0
channel 10 : control change: 100 value: 2
channel 10 : control change: 6 value: 64
channel 10 : control change: 101 value: 0
channel 10 : control change: 100 value: 0
channel 10 : control change: 6 value: 12
channel 10 : pitch wheel change 8192
channel 10 : control change: 101 value: 127
channel 10 : control change: 100 value: 127
channel 11 : control change: 121 value: 0
channel 11 : control change: 0 value: 0
channel 11 : control change: 32 value: 0
channel 11 : program change 0
channel 11 : control change: 10 value: 64
channel 11 : control change: 7 value: 100
channel 11 : control change: 91 value: 0
channel 11 : control change: 11 value: 127
channel 11 : control change: 1 value: 0
channel 11 : control change: 101 value: 0
channel 11 : control change: 100 value: 1
channel 11 : control change: 6 value: 64
channel 11 : control change: 38 value: 0
channel 11 : control change: 101 value: 0
channel 11 : control change: 100 value: 2
channel 11 : control change: 6 value: 64
channel 11 : control change: 101 value: 0
channel 11 : control change: 100 value: 0
channel 11 : control change: 6 value: 12
channel 11 : pitch wheel change 8192
channel 11 : control change: 101 value: 127
channel 11 : control change: 100 value: 127
channel 12 : control change: 121 value: 0
channel 12 : control change: 0 value: 0
channel 12 : control change: 32 value: 0
channel 12 : program change 0
channel 12 : control change: 10 value: 64
channel 12 : control change: 7 value: 100
channel 12 : control change: 91 value: 0
channel 12 : control change: 11 value: 127
channel 12 : control change: 1 value: 0
channel 12 : control change: 101 value: 0
channel 12 : control change: 100 value: 1
channel 12 : control change: 6 value: 64
channel 12 : control change: 38 value: 0
channel 12 : control change: 101 value: 0
channel 12 : control change: 100 value: 2
channel 12 : control change: 6 value: 64
channel 12 : control change: 101 value: 0
channel 12 : control change: 100 value: 0
channel 12 : control change: 6 value: 12
channel 12 : pitch wheel change 8192
channel 12 : control change: 101 value: 127
channel 12 : control change: 100 value: 127
channel 13 : control change: 121 value: 0
channel 13 : control change: 0 value: 0
channel 13 : control change: 32 value: 0
channel 13 : program change 0
channel 13 : control change: 10 value: 64
channel 13 : control change: 7 value: 100
channel 13 : control change: 91 value: 0
channel 13 : control change: 11 value: 127
channel 13 : control change: 1 value: 0
channel 13 : control change: 101 value: 0
channel 13 : control change: 100 value: 1
channel 13 : control change: 6 value: 64
channel 13 : control change: 38 value: 0
channel 13 : control change: 101 value: 0
channel 13 : control change: 100 value: 2
channel 13 : control change: 6 value: 64
channel 13 : control change: 101 value: 0
channel 13 : control change: 100 value: 0
channel 13 : control change: 6 value: 12
channel 13 : pitch wheel change 8192
channel 13 : control change: 101 value: 127
channel 13 : control change: 100 value: 127
channel 14 : control change: 121 value: 0
channel 14 : control change: 0 value: 0
channel 14 : control change: 32 value: 0
channel 14 : program change 0
channel 14 : control change: 10 value: 64
channel 14 : control change: 7 value: 100
channel 14 : control change: 91 value: 0
channel 14 : control change: 11 value: 127
channel 14 : control change: 1 value: 0
channel 14 : control change: 101 value: 0
channel 14 : control change: 100 value: 1
channel 14 : control change: 6 value: 64
channel 14 : control change: 38 value: 0
channel 14 : control change: 101 value: 0
channel 14 : control change: 100 value: 2
channel 14 : control change: 6 value: 64
channel 14 : control change: 101 value: 0
channel 14 : control change: 100 value: 0
channel 14 : control change: 6 value: 12
channel 14 : pitch wheel change 8192
channel 14 : control change: 101 value: 127
channel 14 : control change: 100 value: 127
channel 15 : control change: 121 value: 0
channel 15 : control change: 0 value: 0
channel 15 : control change: 32 value: 0
channel 15 : program change 0
channel 15 : control change: 10 value: 64
channel 15 : control change: 7 value: 100
channel 15 : control change: 91 value: 0
channel 15 : control change: 11 value: 127
channel 15 : control change: 1 value: 0
channel 15 : control change: 101 value: 0
channel 15 : control change: 100 value: 1
channel 15 : control change: 6 value: 64
channel 15 : control change: 38 value: 0
channel 15 : control change: 101 value: 0
channel 15 : control change: 100 value: 2
channel 15 : control change: 6 value: 64
channel 15 : control change: 101 value: 0
channel 15 : control change: 100 value: 0
channel 15 : control change: 6 value: 12
channel 15 : pitch wheel change 8192
channel 15 : control change: 101 value: 127
channel 15 : control change: 100 value: 127
channel 16 : control change: 121 value: 0
channel 16 : control change: 0 value: 0
channel 16 : control change: 32 value: 0
channel 16 : program change 0
channel 16 : control change: 10 value: 64
channel 16 : control change: 7 value: 100
channel 16 : control change: 91 value: 0
channel 16 : control change: 11 value: 127
channel 16 : control change: 1 value: 0
channel 16 : control change: 101 value: 0
channel 16 : control change: 100 value: 1
channel 16 : control change: 6 value: 64
channel 16 : control change: 38 value: 0
channel 16 : control change: 101 value: 0
channel 16 : control change: 100 value: 2
channel 16 : control change: 6 value: 64
channel 16 : control change: 101 value: 0
channel 16 : control change: 100 value: 0
channel 16 : control change: 6 value: 12
channel 16 : pitch wheel change 8192
channel 16 : control change: 101 value: 127
channel 16 : control change: 100 value: 127
channel 1 : note On G3 velocity: 84
channel 1 : note On C4 velocity: 79
channel 1 : note Off G3 velocity: 0
channel 1 : note Off C4 velocity: 0
channel 1 : note On C4 velocity: 74
channel 1 : note Off C4 velocity: 0
channel 1 : note On E4 velocity: 92
channel 1 : note On D4 velocity: 71
channel 1 : note Off E4 velocity: 0
channel 1 : note On C4 velocity: 61
channel 1 : note Off D4 velocity: 0
channel 1 : note On E4 velocity: 89
channel 1 : note Off C4 velocity: 0
channel 1 : note Off E4 velocity: 0
channel 1 : note On E4 velocity: 97
channel 1 : note On D4 velocity: 83
channel 1 : note Off E4 velocity: 0
channel 1 : note Off D4 velocity: 0
channel 1 : note On C4 velocity: 63
channel 1 : note Off C4 velocity: 0
channel 1 : note On A3 velocity: 63
channel 1 : note Off A3 velocity: 0
channel 1 : note On G3 velocity: 84
channel 1 : note Off G3 velocity: 0
channel 2 : control change: 121 value: 0
channel 2 : control change: 0 value: 0
channel 2 : control change: 32 value: 0
channel 2 : program change 0
channel 2 : control change: 10 value: 64
channel 2 : control change: 7 value: 100
channel 2 : control change: 91 value: 0
channel 2 : control change: 11 value: 127
channel 2 : control change: 1 value: 0
channel 2 : control change: 101 value: 0
channel 2 : control change: 100 value: 1
channel 2 : control change: 6 value: 64
channel 2 : control change: 38 value: 0
channel 2 : control change: 101 value: 0
channel 2 : control change: 100 value: 2
channel 2 : control change: 6 value: 64
channel 2 : control change: 101 value: 0
channel 2 : control change: 100 value: 0
channel 2 : control change: 6 value: 12
channel 2 : pitch wheel change 8192
channel 2 : control change: 101 value: 127
channel 2 : control change: 100 value: 127
channel 3 : control change: 121 value: 0
channel 3 : control change: 0 value: 0
channel 3 : control change: 32 value: 0
channel 3 : program change 0
channel 3 : control change: 10 value: 64
channel 3 : control change: 7 value: 100
channel 3 : control change: 91 value: 0
channel 3 : control change: 11 value: 127
channel 3 : control change: 1 value: 0
channel 3 : control change: 101 value: 0
channel 3 : control change: 100 value: 1
channel 3 : control change: 6 value: 64
channel 3 : control change: 38 value: 0
channel 3 : control change: 101 value: 0
channel 3 : control change: 100 value: 2
channel 3 : control change: 6 value: 64
channel 3 : control change: 101 value: 0
channel 3 : control change: 100 value: 0
channel 3 : control change: 6 value: 12
channel 3 : pitch wheel change 8192
channel 3 : control change: 101 value: 127
channel 3 : control change: 100 value: 127
channel 4 : control change: 121 value: 0
channel 4 : control change: 0 value: 0
channel 4 : control change: 32 value: 0
channel 4 : program change 0
channel 4 : control change: 10 value: 64
channel 4 : control change: 7 value: 100
channel 4 : control change: 91 value: 0
channel 4 : control change: 11 value: 127
channel 4 : control change: 1 value: 0
channel 4 : control change: 101 value: 0
channel 4 : control change: 100 value: 1
channel 4 : control change: 6 value: 64
channel 4 : control change: 38 value: 0
channel 4 : control change: 101 value: 0
channel 4 : control change: 100 value: 2
channel 4 : control change: 6 value: 64
channel 4 : control change: 101 value: 0
channel 4 : control change: 100 value: 0
channel 4 : control change: 6 value: 12
channel 4 : pitch wheel change 8192
channel 4 : control change: 101 value: 127
channel 4 : control change: 100 value: 127
channel 5 : control change: 121 value: 0
channel 5 : control change: 0 value: 0
channel 5 : control change: 32 value: 0
channel 5 : program change 0
channel 5 : control change: 10 value: 64
channel 5 : control change: 7 value: 100
channel 5 : control change: 91 value: 0
channel 5 : control change: 11 value: 127
channel 5 : control change: 1 value: 0
channel 5 : control change: 101 value: 0
channel 5 : control change: 100 value: 1
channel 5 : control change: 6 value: 64
channel 5 : control change: 38 value: 0
channel 5 : control change: 101 value: 0
channel 5 : control change: 100 value: 2
channel 5 : control change: 6 value: 64
channel 5 : control change: 101 value: 0
channel 5 : control change: 100 value: 0
channel 5 : control change: 6 value: 12
channel 5 : pitch wheel change 8192
channel 5 : control change: 101 value: 127
channel 5 : control change: 100 value: 127
channel 6 : control change: 121 value: 0
channel 6 : control change: 0 value: 0
channel 6 : control change: 32 value: 0
channel 6 : program change 0
channel 6 : control change: 10 value: 64
channel 6 : control change: 7 value: 100
channel 6 : control change: 91 value: 0
channel 6 : control change: 11 value: 127
channel 6 : control change: 1 value: 0
channel 6 : control change: 101 value: 0
channel 6 : control change: 100 value: 1
channel 6 : control change: 6 value: 64
channel 6 : control change: 38 value: 0
channel 6 : control change: 101 value: 0
channel 6 : control change: 100 value: 2
channel 6 : control change: 6 value: 64
channel 6 : control change: 101 value: 0
channel 6 : control change: 100 value: 0
channel 6 : control change: 6 value: 12
channel 6 : pitch wheel change 8192
channel 6 : control change: 101 value: 127
channel 6 : control change: 100 value: 127
channel 7 : control change: 121 value: 0
channel 7 : control change: 0 value: 0
channel 7 : control change: 32 value: 0
channel 7 : program change 0
channel 7 : control change: 10 value: 64
channel 7 : control change: 7 value: 100
channel 7 : control change: 91 value: 0
channel 7 : control change: 11 value: 127
channel 7 : control change: 1 value: 0
channel 7 : control change: 101 value: 0
channel 7 : control change: 100 value: 1
channel 7 : control change: 6 value: 64
channel 7 : control change: 38 value: 0
channel 7 : control change: 101 value: 0
channel 7 : control change: 100 value: 2
channel 7 : control change: 6 value: 64
channel 7 : control change: 101 value: 0
channel 7 : control change: 100 value: 0
channel 7 : control change: 6 value: 12
channel 7 : pitch wheel change 8192
channel 7 : control change: 101 value: 127
channel 7 : control change: 100 value: 127
channel 8 : control change: 121 value: 0
channel 8 : control change: 0 value: 0
channel 8 : control change: 32 value: 0
channel 8 : program change 0
channel 8 : control change: 10 value: 64
channel 8 : control change: 7 value: 100
channel 8 : control change: 91 value: 0
channel 8 : control change: 11 value: 127
channel 8 : control change: 1 value: 0
channel 8 : control change: 101 value: 0
channel 8 : control change: 100 value: 1
channel 8 : control change: 6 value: 64
channel 8 : control change: 38 value: 0
channel 8 : control change: 101 value: 0
channel 8 : control change: 100 value: 2
channel 8 : control change: 6 value: 64
channel 8 : control change: 101 value: 0
channel 8 : control change: 100 value: 0
channel 8 : control change: 6 value: 12
channel 8 : pitch wheel change 8192
channel 8 : control change: 101 value: 127
channel 8 : control change: 100 value: 127
channel 9 : control change: 121 value: 0
channel 9 : control change: 0 value: 0
channel 9 : control change: 32 value: 0
channel 9 : program change 0
channel 9 : control change: 10 value: 64
channel 9 : control change: 7 value: 100
channel 9 : control change: 91 value: 0
channel 9 : control change: 11 value: 127
channel 9 : control change: 1 value: 0
channel 9 : control change: 101 value: 0
channel 9 : control change: 100 value: 1
channel 9 : control change: 6 value: 64
channel 9 : control change: 38 value: 0
channel 9 : control change: 101 value: 0
channel 9 : control change: 100 value: 2
channel 9 : control change: 6 value: 64
channel 9 : control change: 101 value: 0
channel 9 : control change: 100 value: 0
channel 9 : control change: 6 value: 12
channel 9 : pitch wheel change 8192
channel 9 : control change: 101 value: 127
channel 9 : control change: 100 value: 127
channel 10 : control change: 121 value: 0
channel 10 : control change: 32 value: 0
channel 10 : program change 0
channel 10 : control change: 10 value: 64
channel 10 : control change: 7 value: 100
channel 10 : control change: 91 value: 0
channel 10 : control change: 11 value: 127
channel 10 : control change: 1 value: 0
channel 10 : control change: 101 value: 0
channel 10 : control change: 100 value: 1
channel 10 : control change: 6 value: 64
channel 10 : control change: 38 value: 0
channel 10 : control change: 101 value: 0
channel 10 : control change: 100 value: 2
channel 10 : control change: 6 value: 64
channel 10 : control change: 101 value: 0
channel 10 : control change: 100 value: 0
channel 10 : control change: 6 value: 12
channel 10 : pitch wheel change 8192
channel 10 : control change: 101 value: 127
channel 10 : control change: 100 value: 127
channel 11 : control change: 121 value: 0
channel 11 : control change: 0 value: 0
channel 11 : control change: 32 value: 0
channel 11 : program change 0
channel 11 : control change: 10 value: 64
channel 11 : control change: 7 value: 100
channel 11 : control change: 91 value: 0
channel 11 : control change: 11 value: 127
channel 11 : control change: 1 value: 0
channel 11 : control change: 101 value: 0
channel 11 : control change: 100 value: 1
channel 11 : control change: 6 value: 64
channel 11 : control change: 38 value: 0
channel 11 : control change: 101 value: 0
channel 11 : control change: 100 value: 2
channel 11 : control change: 6 value: 64
channel 11 : control change: 101 value: 0
channel 11 : control change: 100 value: 0
channel 11 : control change: 6 value: 12
channel 11 : pitch wheel change 8192
channel 11 : control change: 101 value: 127
channel 11 : control change: 100 value: 127
channel 12 : control change: 121 value: 0
channel 12 : control change: 0 value: 0
channel 12 : control change: 32 value: 0
channel 12 : program change 0
channel 12 : control change: 10 value: 64
channel 12 : control change: 7 value: 100
channel 12 : control change: 91 value: 0
channel 12 : control change: 11 value: 127
channel 12 : control change: 1 value: 0
channel 12 : control change: 101 value: 0
channel 12 : control change: 100 value: 1
channel 12 : control change: 6 value: 64
channel 12 : control change: 38 value: 0
channel 12 : control change: 101 value: 0
channel 12 : control change: 100 value: 2
channel 12 : control change: 6 value: 64
channel 12 : control change: 101 value: 0
channel 12 : control change: 100 value: 0
channel 12 : control change: 6 value: 12
channel 12 : pitch wheel change 8192
channel 12 : control change: 101 value: 127
channel 12 : control change: 100 value: 127
channel 13 : control change: 121 value: 0
channel 13 : control change: 0 value: 0
channel 13 : control change: 32 value: 0
channel 13 : program change 0
channel 13 : control change: 10 value: 64
channel 13 : control change: 7 value: 100
channel 13 : control change: 91 value: 0
channel 13 : control change: 11 value: 127
channel 13 : control change: 1 value: 0
channel 13 : control change: 101 value: 0
channel 13 : control change: 100 value: 1
channel 13 : control change: 6 value: 64
channel 13 : control change: 38 value: 0
channel 13 : control change: 101 value: 0
channel 13 : control change: 100 value: 2
channel 13 : control change: 6 value: 64
channel 13 : control change: 101 value: 0
channel 13 : control change: 100 value: 0
channel 13 : control change: 6 value: 12
channel 13 : pitch wheel change 8192
channel 13 : control change: 101 value: 127
channel 13 : control change: 100 value: 127
channel 14 : control change: 121 value: 0
channel 14 : control change: 0 value: 0
channel 14 : control change: 32 value: 0
channel 14 : program change 0
channel 14 : control change: 10 value: 64
channel 14 : control change: 7 value: 100
channel 14 : control change: 91 value: 0
channel 14 : control change: 11 value: 127
channel 14 : control change: 1 value: 0
channel 14 : control change: 101 value: 0
channel 14 : control change: 100 value: 1
channel 14 : control change: 6 value: 64
channel 14 : control change: 38 value: 0
channel 14 : control change: 101 value: 0
channel 14 : control change: 100 value: 2
channel 14 : control change: 6 value: 64
channel 14 : control change: 101 value: 0
channel 14 : control change: 100 value: 0
channel 14 : control change: 6 value: 12
channel 14 : pitch wheel change 8192
channel 14 : control change: 101 value: 127
channel 14 : control change: 100 value: 127
channel 15 : control change: 121 value: 0
channel 15 : control change: 0 value: 0
channel 15 : control change: 32 value: 0
channel 15 : program change 0
channel 15 : control change: 10 value: 64
channel 15 : control change: 7 value: 100
channel 15 : control change: 91 value: 0
channel 15 : control change: 11 value: 127
channel 15 : control change: 1 value: 0
channel 15 : control change: 101 value: 0
channel 15 : control change: 100 value: 1
channel 15 : control change: 6 value: 64
channel 15 : control change: 38 value: 0
channel 15 : control change: 101 value: 0
channel 15 : control change: 100 value: 2
channel 15 : control change: 6 value: 64
channel 15 : control change: 101 value: 0
channel 15 : control change: 100 value: 0
channel 15 : control change: 6 value: 12
channel 15 : pitch wheel change 8192
channel 15 : control change: 101 value: 127
channel 15 : control change: 100 value: 127
channel 16 : control change: 121 value: 0
channel 16 : control change: 0 value: 0
channel 16 : control change: 32 value: 0
channel 16 : program change 0
channel 16 : control change: 10 value: 64
channel 16 : control change: 7 value: 100
channel 16 : control change: 91 value: 0
channel 16 : control change: 11 value: 127
channel 16 : control change: 1 value: 0
channel 16 : control change: 101 value: 0
channel 16 : control change: 100 value: 1
channel 16 : control change: 6 value: 64
channel 16 : control change: 38 value: 0
channel 16 : control change: 101 value: 0
channel 16 : control change: 100 value: 2
channel 16 : control change: 6 value: 64
channel 16 : control change: 101 value: 0
channel 16 : control change: 100 value: 0
channel 16 : control change: 6 value: 12
channel 16 : pitch wheel change 8192
channel 16 : control change: 101 value: 127
channel 16 : control change: 100 value: 127
channel 1 : note On G3 velocity: 95
channel 1 : note Off G3 velocity: 0
channel 1 : note On C4 velocity: 117
channel 1 : note Off C4 velocity: 0
channel 1 : note On C4 velocity: 124
channel 1 : control change: 64 value: 69
channel 1 : control change: 64 value: 109
channel 1 : control change: 64 value: 127
channel 1 : note Off C4 velocity: 0
channel 1 : control change: 64 value: 67
channel 1 : control change: 64 value: 27
channel 1 : control change: 64 value: 6
channel 1 : control change: 64 value: 0
channel 1 : note On E4 velocity: 102
channel 1 : control change: 64 value: 69
channel 1 : control change: 64 value: 109
channel 1 : control change: 64 value: 127
channel 1 : note On D4 velocity: 108
channel 1 : note Off E4 velocity: 0
channel 1 : note On C4 velocity: 84
channel 1 : note Off D4 velocity: 0
channel 1 : note On E4 velocity: 120
channel 1 : note Off C4 velocity: 0
channel 1 : control change: 64 value: 65
channel 1 : control change: 64 value: 25
channel 1 : control change: 64 value: 6
channel 1 : control change: 64 value: 0
channel 1 : control change: 64 value: 69
channel 1 : control change: 64 value: 109
channel 1 : control change: 64 value: 127
channel 1 : note Off E4 velocity: 0
channel 1 : control change: 64 value: 67
channel 1 : control change: 64 value: 27
channel 1 : control change: 64 value: 6
channel 1 : control change: 64 value: 0
channel 1 : note On E4 velocity: 117
channel 1 : control change: 64 value: 51
channel 1 : control change: 64 value: 101
channel 1 : control change: 64 value: 125
channel 1 : control change: 64 value: 127
channel 1 : note On D4 velocity: 105
channel 1 : note Off E4 velocity: 0
channel 1 : note Off D4 velocity: 0
channel 1 : note On C4 velocity: 108
channel 1 : control change: 64 value: 67
channel 1 : control change: 64 value: 27
channel 1 : control change: 64 value: 6
channel 1 : control change: 64 value: 0
channel 1 : control change: 64 value: 69
channel 1 : control change: 64 value: 109
channel 1 : control change: 64 value: 127
channel 1 : note Off C4 velocity: 0
channel 1 : note On A3 velocity: 105
channel 1 : control change: 64 value: 67
channel 1 : control change: 64 value: 27
channel 1 : control change: 64 value: 6
channel 1 : control change: 64 value: 0
channel 1 : control change: 64 value: 69
channel 1 : control change: 64 value: 109
channel 1 : control change: 64 value: 127
channel 1 : control change: 64 value: 67
channel 1 : control change: 64 value: 27
channel 1 : control change: 64 value: 6
channel 1 : control change: 64 value: 0
channel 1 : control change: 64 value: 73
channel 1 : control change: 64 value: 111
channel 1 : control change: 64 value: 127
channel 1 : note On G3 velocity: 105
channel 1 : note Off A3 velocity: 0
channel 1 : note Off G3 velocity: 0
channel 1 : control change: 64 value: 67
channel 1 : control change: 64 value: 27
channel 1 : control change: 64 value: 6
channel 1 : control change: 64 value: 0
channel 2 : control change: 121 value: 0
channel 2 : control change: 0 value: 0
channel 2 : control change: 32 value: 0
channel 2 : program change 0
channel 2 : control change: 10 value: 64
channel 2 : control change: 7 value: 100
channel 2 : control change: 91 value: 0
channel 2 : control change: 11 value: 127
channel 2 : control change: 1 value: 0
channel 2 : control change: 101 value: 0
channel 2 : control change: 100 value: 1
channel 2 : control change: 6 value: 64
channel 2 : control change: 38 value: 0
channel 2 : control change: 101 value: 0
channel 2 : control change: 100 value: 2
channel 2 : control change: 6 value: 64
channel 2 : control change: 101 value: 0
channel 2 : control change: 100 value: 0
channel 2 : control change: 6 value: 12
channel 2 : pitch wheel change 8192
channel 2 : control change: 101 value: 127
channel 2 : control change: 100 value: 127
channel 3 : control change: 121 value: 0
channel 3 : control change: 0 value: 0
channel 3 : control change: 32 value: 0
channel 3 : program change 0
channel 3 : control change: 10 value: 64
channel 3 : control change: 7 value: 100
channel 3 : control change: 91 value: 0
channel 3 : control change: 11 value: 127
channel 3 : control change: 1 value: 0
channel 3 : control change: 101 value: 0
channel 3 : control change: 100 value: 1
channel 3 : control change: 6 value: 64
channel 3 : control change: 38 value: 0
channel 3 : control change: 101 value: 0
channel 3 : control change: 100 value: 2
channel 3 : control change: 6 value: 64
channel 3 : control change: 101 value: 0
channel 3 : control change: 100 value: 0
channel 3 : control change: 6 value: 12
channel 3 : pitch wheel change 8192
channel 3 : control change: 101 value: 127
channel 3 : control change: 100 value: 127
channel 4 : control change: 121 value: 0
channel 4 : control change: 0 value: 0
channel 4 : control change: 32 value: 0
channel 4 : program change 0
channel 4 : control change: 10 value: 64
channel 4 : control change: 7 value: 100
channel 4 : control change: 91 value: 0
channel 4 : control change: 11 value: 127
channel 4 : control change: 1 value: 0
channel 4 : control change: 101 value: 0
channel 4 : control change: 100 value: 1
channel 4 : control change: 6 value: 64
channel 4 : control change: 38 value: 0
channel 4 : control change: 101 value: 0
channel 4 : control change: 100 value: 2
channel 4 : control change: 6 value: 64
channel 4 : control change: 101 value: 0
channel 4 : control change: 100 value: 0
channel 4 : control change: 6 value: 12
channel 4 : pitch wheel change 8192
channel 4 : control change: 101 value: 127
channel 4 : control change: 100 value: 127
channel 5 : control change: 121 value: 0
channel 5 : control change: 0 value: 0
channel 5 : control change: 32 value: 0
channel 5 : program change 0
channel 5 : control change: 10 value: 64
channel 5 : control change: 7 value: 100
channel 5 : control change: 91 value: 0
channel 5 : control change: 11 value: 127
channel 5 : control change: 1 value: 0
channel 5 : control change: 101 value: 0
channel 5 : control change: 100 value: 1
channel 5 : control change: 6 value: 64
channel 5 : control change: 38 value: 0
channel 5 : control change: 101 value: 0
channel 5 : control change: 100 value: 2
channel 5 : control change: 6 value: 64
channel 5 : control change: 101 value: 0
channel 5 : control change: 100 value: 0
channel 5 : control change: 6 value: 12
channel 5 : pitch wheel change 8192
channel 5 : control change: 101 value: 127
channel 5 : control change: 100 value: 127
channel 6 : control change: 121 value: 0
channel 6 : control change: 0 value: 0
channel 6 : control change: 32 value: 0
channel 6 : program change 0
channel 6 : control change: 10 value: 64
channel 6 : control change: 7 value: 100
channel 6 : control change: 91 value: 0
channel 6 : control change: 11 value: 127
channel 6 : control change: 1 value: 0
channel 6 : control change: 101 value: 0
channel 6 : control change: 100 value: 1
channel 6 : control change: 6 value: 64
channel 6 : control change: 38 value: 0
channel 6 : control change: 101 value: 0
channel 6 : control change: 100 value: 2
channel 6 : control change: 6 value: 64
channel 6 : control change: 101 value: 0
channel 6 : control change: 100 value: 0
channel 6 : control change: 6 value: 12
channel 6 : pitch wheel change 8192
channel 6 : control change: 101 value: 127
channel 6 : control change: 100 value: 127
channel 7 : control change: 121 value: 0
channel 7 : control change: 0 value: 0
channel 7 : control change: 32 value: 0
channel 7 : program change 0
channel 7 : control change: 10 value: 64
channel 7 : control change: 7 value: 100
channel 7 : control change: 91 value: 0
channel 7 : control change: 11 value: 127
channel 7 : control change: 1 value: 0
channel 7 : control change: 101 value: 0
channel 7 : control change: 100 value: 1
channel 7 : control change: 6 value: 64
channel 7 : control change: 38 value: 0
channel 7 : control change: 101 value: 0
channel 7 : control change: 100 value: 2
channel 7 : control change: 6 value: 64
channel 7 : control change: 101 value: 0
channel 7 : control change: 100 value: 0
channel 7 : control change: 6 value: 12
channel 7 : pitch wheel change 8192
channel 7 : control change: 101 value: 127
channel 7 : control change: 100 value: 127
channel 8 : control change: 121 value: 0
channel 8 : control change: 0 value: 0
channel 8 : control change: 32 value: 0
channel 8 : program change 0
channel 8 : control change: 10 value: 64
channel 8 : control change: 7 value: 100
channel 8 : control change: 91 value: 0
channel 8 : control change: 11 value: 127
channel 8 : control change: 1 value: 0
channel 8 : control change: 101 value: 0
channel 8 : control change: 100 value: 1
channel 8 : control change: 6 value: 64
channel 8 : control change: 38 value: 0
channel 8 : control change: 101 value: 0
channel 8 : control change: 100 value: 2
channel 8 : control change: 6 value: 64
channel 8 : control change: 101 value: 0
channel 8 : control change: 100 value: 0
channel 8 : control change: 6 value: 12
channel 8 : pitch wheel change 8192
channel 8 : control change: 101 value: 127
channel 8 : control change: 100 value: 127
channel 9 : control change: 121 value: 0
channel 9 : control change: 0 value: 0
channel 9 : control change: 32 value: 0
channel 9 : program change 0
channel 9 : control change: 10 value: 64
channel 9 : control change: 7 value: 100
channel 9 : control change: 91 value: 0
channel 9 : control change: 11 value: 127
channel 9 : control change: 1 value: 0
channel 9 : control change: 101 value: 0
channel 9 : control change: 100 value: 1
channel 9 : control change: 6 value: 64
channel 9 : control change: 38 value: 0
channel 9 : control change: 101 value: 0
channel 9 : control change: 100 value: 2
channel 9 : control change: 6 value: 64
channel 9 : control change: 101 value: 0
channel 9 : control change: 100 value: 0
channel 9 : control change: 6 value: 12
channel 9 : pitch wheel change 8192
channel 9 : control change: 101 value: 127
channel 9 : control change: 100 value: 127
channel 10 : control change: 121 value: 0
channel 10 : control change: 32 value: 0
channel 10 : program change 0
channel 10 : control change: 10 value: 64
channel 10 : control change: 7 value: 100
channel 10 : control change: 91 value: 0
channel 10 : control change: 11 value: 127
channel 10 : control change: 1 value: 0
channel 10 : control change: 101 value: 0
channel 10 : control change: 100 value: 1
channel 10 : control change: 6 value: 64
channel 10 : control change: 38 value: 0
channel 10 : control change: 101 value: 0
channel 10 : control change: 100 value: 2
channel 10 : control change: 6 value: 64
channel 10 : control change: 101 value: 0
channel 10 : control change: 100 value: 0
channel 10 : control change: 6 value: 12
channel 10 : pitch wheel change 8192
channel 10 : control change: 101 value: 127
channel 10 : control change: 100 value: 127
channel 11 : control change: 121 value: 0
channel 11 : control change: 0 value: 0
channel 11 : control change: 32 value: 0
channel 11 : program change 0
channel 11 : control change: 10 value: 64
channel 11 : control change: 7 value: 100
channel 11 : control change: 91 value: 0
channel 11 : control change: 11 value: 127
channel 11 : control change: 1 value: 0
channel 11 : control change: 101 value: 0
channel 11 : control change: 100 value: 1
channel 11 : control change: 6 value: 64
channel 11 : control change: 38 value: 0
channel 11 : control change: 101 value: 0
channel 11 : control change: 100 value: 2
channel 11 : control change: 6 value: 64
channel 11 : control change: 101 value: 0
channel 11 : control change: 100 value: 0
channel 11 : control change: 6 value: 12
channel 11 : pitch wheel change 8192
channel 11 : control change: 101 value: 127
channel 11 : control change: 100 value: 127
channel 12 : control change: 121 value: 0
channel 12 : control change: 0 value: 0
channel 12 : control change: 32 value: 0
channel 12 : program change 0
channel 12 : control change: 10 value: 64
channel 12 : control change: 7 value: 100
channel 12 : control change: 91 value: 0
channel 12 : control change: 11 value: 127
channel 12 : control change: 1 value: 0
channel 12 : control change: 101 value: 0
channel 12 : control change: 100 value: 1
channel 12 : control change: 6 value: 64
channel 12 : control change: 38 value: 0
channel 12 : control change: 101 value: 0
channel 12 : control change: 100 value: 2
channel 12 : control change: 6 value: 64
channel 12 : control change: 101 value: 0
channel 12 : control change: 100 value: 0
channel 12 : control change: 6 value: 12
channel 12 : pitch wheel change 8192
channel 12 : control change: 101 value: 127
channel 12 : control change: 100 value: 127
channel 13 : control change: 121 value: 0
channel 13 : control change: 0 value: 0
channel 13 : control change: 32 value: 0
channel 13 : program change 0
channel 13 : control change: 10 value: 64
channel 13 : control change: 7 value: 100
channel 13 : control change: 91 value: 0
channel 13 : control change: 11 value: 127
channel 13 : control change: 1 value: 0
channel 13 : control change: 101 value: 0
channel 13 : control change: 100 value: 1
channel 13 : control change: 6 value: 64
channel 13 : control change: 38 value: 0
channel 13 : control change: 101 value: 0
channel 13 : control change: 100 value: 2
channel 13 : control change: 6 value: 64
channel 13 : control change: 101 value: 0
channel 13 : control change: 100 value: 0
channel 13 : control change: 6 value: 12
channel 13 : pitch wheel change 8192
channel 13 : control change: 101 value: 127
channel 13 : control change: 100 value: 127
channel 14 : control change: 121 value: 0
channel 14 : control change: 0 value: 0
channel 14 : control change: 32 value: 0
channel 14 : program change 0
channel 14 : control change: 10 value: 64
channel 14 : control change: 7 value: 100
channel 14 : control change: 91 value: 0
channel 14 : control change: 11 value: 127
channel 14 : control change: 1 value: 0
channel 14 : control change: 101 value: 0
channel 14 : control change: 100 value: 1
channel 14 : control change: 6 value: 64
channel 14 : control change: 38 value: 0
channel 14 : control change: 101 value: 0
channel 14 : control change: 100 value: 2
channel 14 : control change: 6 value: 64
channel 14 : control change: 101 value: 0
channel 14 : control change: 100 value: 0
channel 14 : control change: 6 value: 12
channel 14 : pitch wheel change 8192
channel 14 : control change: 101 value: 127
channel 14 : control change: 100 value: 127
channel 15 : control change: 121 value: 0
channel 15 : control change: 0 value: 0
channel 15 : control change: 32 value: 0
channel 15 : program change 0
channel 15 : control change: 10 value: 64
channel 15 : control change: 7 value: 100
channel 15 : control change: 91 value: 0
channel 15 : control change: 11 value: 127
channel 15 : control change: 1 value: 0
channel 15 : control change: 101 value: 0
channel 15 : control change: 100 value: 1
channel 15 : control change: 6 value: 64
channel 15 : control change: 38 value: 0
channel 15 : control change: 101 value: 0
channel 15 : control change: 100 value: 2
channel 15 : control change: 6 value: 64
channel 15 : control change: 101 value: 0
channel 15 : control change: 100 value: 0
channel 15 : control change: 6 value: 12
channel 15 : pitch wheel change 8192
channel 15 : control change: 101 value: 127
channel 15 : control change: 100 value: 127
channel 16 : control change: 121 value: 0
channel 16 : control change: 0 value: 0
channel 16 : control change: 32 value: 0
channel 16 : program change 0
channel 16 : control change: 10 value: 64
channel 16 : control change: 7 value: 100
channel 16 : control change: 91 value: 0
channel 16 : control change: 11 value: 127
channel 16 : control change: 1 value: 0
channel 16 : control change: 101 value: 0
channel 16 : control change: 100 value: 1
channel 16 : control change: 6 value: 64
channel 16 : control change: 38 value: 0
channel 16 : control change: 101 value: 0
channel 16 : control change: 100 value: 2
channel 16 : control change: 6 value: 64
channel 16 : control change: 101 value: 0
channel 16 : control change: 100 value: 0
channel 16 : control change: 6 value: 12
channel 16 : pitch wheel change 8192
channel 16 : control change: 101 value: 127
channel 16 : control change: 100 value: 127
channel 1 : note On G3 velocity: 59
channel 1 : note Off G3 velocity: 0
channel 1 : note On C4 velocity: 60
channel 1 : note Off C4 velocity: 0
channel 1 : note On C4 velocity: 102
channel 1 : note Off C4 velocity: 0
channel 1 : note On C4 velocity: 50
channel 1 : note Off C4 velocity: 0
channel 1 : note On E4 velocity: 76
channel 1 : note Off E4 velocity: 0
channel 1 : note On D4 velocity: 26
channel 1 : note On C4 velocity: 61
channel 1 : note Off D4 velocity: 0
channel 1 : note Off C4 velocity: 0
channel 1 : note On E4 velocity: 108
channel 1 : note Off E4 velocity: 0
channel 1 : note On E4 velocity: 66
channel 1 : note On D4 velocity: 55
channel 1 : note Off E4 velocity: 0
channel 1 : note On C4 velocity: 44
channel 1 : note Off D4 velocity: 0
channel 1 : note Off C4 velocity: 0
channel 1 : note On A3 velocity: 73
channel 1 : note Off A3 velocity: 0
channel 1 : note On G3 velocity: 52
channel 1 : note Off G3 velocity: 0
channel 2 : control change: 121 value: 0
channel 2 : control change: 0 value: 0
channel 2 : control change: 32 value: 0
channel 2 : program change 0
channel 2 : control change: 10 value: 64
channel 2 : control change: 7 value: 100
channel 2 : control change: 91 value: 0
channel 2 : control change: 11 value: 127
channel 2 : control change: 1 value: 0
channel 2 : control change: 101 value: 0
channel 2 : control change: 100 value: 1
channel 2 : control change: 6 value: 64
channel 2 : control change: 38 value: 0
channel 2 : control change: 101 value: 0
channel 2 : control change: 100 value: 2
channel 2 : control change: 6 value: 64
channel 2 : control change: 101 value: 0
channel 2 : control change: 100 value: 0
channel 2 : control change: 6 value: 12
channel 2 : pitch wheel change 8192
channel 2 : control change: 101 value: 127
channel 2 : control change: 100 value: 127
channel 3 : control change: 121 value: 0
channel 3 : control change: 0 value: 0
channel 3 : control change: 32 value: 0
channel 3 : program change 0
channel 3 : control change: 10 value: 64
channel 3 : control change: 7 value: 100
channel 3 : control change: 91 value: 0
channel 3 : control change: 11 value: 127
channel 3 : control change: 1 value: 0
channel 3 : control change: 101 value: 0
channel 3 : control change: 100 value: 1
channel 3 : control change: 6 value: 64
channel 3 : control change: 38 value: 0
channel 3 : control change: 101 value: 0
channel 3 : control change: 100 value: 2
channel 3 : control change: 6 value: 64
channel 3 : control change: 101 value: 0
channel 3 : control change: 100 value: 0
channel 3 : control change: 6 value: 12
channel 3 : pitch wheel change 8192
channel 3 : control change: 101 value: 127
channel 3 : control change: 100 value: 127
channel 4 : control change: 121 value: 0
channel 4 : control change: 0 value: 0
channel 4 : control change: 32 value: 0
channel 4 : program change 0
channel 4 : control change: 10 value: 64
channel 4 : control change: 7 value: 100
channel 4 : control change: 91 value: 0
channel 4 : control change: 11 value: 127
channel 4 : control change: 1 value: 0
channel 4 : control change: 101 value: 0
channel 4 : control change: 100 value: 1
channel 4 : control change: 6 value: 64
channel 4 : control change: 38 value: 0
channel 4 : control change: 101 value: 0
channel 4 : control change: 100 value: 2
channel 4 : control change: 6 value: 64
channel 4 : control change: 101 value: 0
channel 4 : control change: 100 value: 0
channel 4 : control change: 6 value: 12
channel 4 : pitch wheel change 8192
channel 4 : control change: 101 value: 127
channel 4 : control change: 100 value: 127
channel 5 : control change: 121 value: 0
channel 5 : control change: 0 value: 0
channel 5 : control change: 32 value: 0
channel 5 : program change 0
channel 5 : control change: 10 value: 64
channel 5 : control change: 7 value: 100
channel 5 : control change: 91 value: 0
channel 5 : control change: 11 value: 127
channel 5 : control change: 1 value: 0
channel 5 : control change: 101 value: 0
channel 5 : control change: 100 value: 1
channel 5 : control change: 6 value: 64
channel 5 : control change: 38 value: 0
channel 5 : control change: 101 value: 0
channel 5 : control change: 100 value: 2
channel 5 : control change: 6 value: 64
channel 5 : control change: 101 value: 0
channel 5 : control change: 100 value: 0
channel 5 : control change: 6 value: 12
channel 5 : pitch wheel change 8192
channel 5 : control change: 101 value: 127
channel 5 : control change: 100 value: 127
channel 6 : control change: 121 value: 0
channel 6 : control change: 0 value: 0
channel 6 : control change: 32 value: 0
channel 6 : program change 0
channel 6 : control change: 10 value: 64
channel 6 : control change: 7 value: 100
channel 6 : control change: 91 value: 0
channel 6 : control change: 11 value: 127
channel 6 : control change: 1 value: 0
channel 6 : control change: 101 value: 0
channel 6 : control change: 100 value: 1
channel 6 : control change: 6 value: 64
channel 6 : control change: 38 value: 0
channel 6 : control change: 101 value: 0
channel 6 : control change: 100 value: 2
channel 6 : control change: 6 value: 64
channel 6 : control change: 101 value: 0
channel 6 : control change: 100 value: 0
channel 6 : control change: 6 value: 12
channel 6 : pitch wheel change 8192
channel 6 : control change: 101 value: 127
channel 6 : control change: 100 value: 127
channel 7 : control change: 121 value: 0
channel 7 : control change: 0 value: 0
channel 7 : control change: 32 value: 0
channel 7 : program change 0
channel 7 : control change: 10 value: 64
channel 7 : control change: 7 value: 100
channel 7 : control change: 91 value: 0
channel 7 : control change: 11 value: 127
channel 7 : control change: 1 value: 0
channel 7 : control change: 101 value: 0
channel 7 : control change: 100 value: 1
channel 7 : control change: 6 value: 64
channel 7 : control change: 38 value: 0
channel 7 : control change: 101 value: 0
channel 7 : control change: 100 value: 2
channel 7 : control change: 6 value: 64
channel 7 : control change: 101 value: 0
channel 7 : control change: 100 value: 0
channel 7 : control change: 6 value: 12
channel 7 : pitch wheel change 8192
channel 7 : control change: 101 value: 127
channel 7 : control change: 100 value: 127
channel 8 : control change: 121 value: 0
channel 8 : control change: 0 value: 0
channel 8 : control change: 32 value: 0
channel 8 : program change 0
channel 8 : control change: 10 value: 64
channel 8 : control change: 7 value: 100
channel 8 : control change: 91 value: 0
channel 8 : control change: 11 value: 127
channel 8 : control change: 1 value: 0
channel 8 : control change: 101 value: 0
channel 8 : control change: 100 value: 1
channel 8 : control change: 6 value: 64
channel 8 : control change: 38 value: 0
channel 8 : control change: 101 value: 0
channel 8 : control change: 100 value: 2
channel 8 : control change: 6 value: 64
channel 8 : control change: 101 value: 0
channel 8 : control change: 100 value: 0
channel 8 : control change: 6 value: 12
channel 8 : pitch wheel change 8192
channel 8 : control change: 101 value: 127
channel 8 : control change: 100 value: 127
channel 9 : control change: 121 value: 0
channel 9 : control change: 0 value: 0
channel 9 : control change: 32 value: 0
channel 9 : program change 0
channel 9 : control change: 10 value: 64
channel 9 : control change: 7 value: 100
channel 9 : control change: 91 value: 0
channel 9 : control change: 11 value: 127
channel 9 : control change: 1 value: 0
channel 9 : control change: 101 value: 0
channel 9 : control change: 100 value: 1
channel 9 : control change: 6 value: 64
channel 9 : control change: 38 value: 0
channel 9 : control change: 101 value: 0
channel 9 : control change: 100 value: 2
channel 9 : control change: 6 value: 64
channel 9 : control change: 101 value: 0
channel 9 : control change: 100 value: 0
channel 9 : control change: 6 value: 12
channel 9 : pitch wheel change 8192
channel 9 : control change: 101 value: 127
channel 9 : control change: 100 value: 127
channel 10 : control change: 121 value: 0
channel 10 : control change: 32 value: 0
channel 10 : program change 0
channel 10 : control change: 10 value: 64
channel 10 : control change: 7 value: 100
channel 10 : control change: 91 value: 0
channel 10 : control change: 11 value: 127
channel 10 : control change: 1 value: 0
channel 10 : control change: 101 value: 0
channel 10 : control change: 100 value: 1
channel 10 : control change: 6 value: 64
channel 10 : control change: 38 value: 0
channel 10 : control change: 101 value: 0
channel 10 : control change: 100 value: 2
channel 10 : control change: 6 value: 64
channel 10 : control change: 101 value: 0
channel 10 : control change: 100 value: 0
channel 10 : control change: 6 value: 12
channel 10 : pitch wheel change 8192
channel 10 : control change: 101 value: 127
channel 10 : control change: 100 value: 127
channel 11 : control change: 121 value: 0
channel 11 : control change: 0 value: 0
channel 11 : control change: 32 value: 0
channel 11 : program change 0
channel 11 : control change: 10 value: 64
channel 11 : control change: 7 value: 100
channel 11 : control change: 91 value: 0
channel 11 : control change: 11 value: 127
channel 11 : control change: 1 value: 0
channel 11 : control change: 101 value: 0
channel 11 : control change: 100 value: 1
channel 11 : control change: 6 value: 64
channel 11 : control change: 38 value: 0
channel 11 : control change: 101 value: 0
channel 11 : control change: 100 value: 2
channel 11 : control change: 6 value: 64
channel 11 : control change: 101 value: 0
channel 11 : control change: 100 value: 0
channel 11 : control change: 6 value: 12
channel 11 : pitch wheel change 8192
channel 11 : control change: 101 value: 127
channel 11 : control change: 100 value: 127
channel 12 : control change: 121 value: 0
channel 12 : control change: 0 value: 0
channel 12 : control change: 32 value: 0
channel 12 : program change 0
channel 12 : control change: 10 value: 64
channel 12 : control change: 7 value: 100
channel 12 : control change: 91 value: 0
channel 12 : control change: 11 value: 127
channel 12 : control change: 1 value: 0
channel 12 : control change: 101 value: 0
channel 12 : control change: 100 value: 1
channel 12 : control change: 6 value: 64
channel 12 : control change: 38 value: 0
channel 12 : control change: 101 value: 0
channel 12 : control change: 100 value: 2
channel 12 : control change: 6 value: 64
channel 12 : control change: 101 value: 0
channel 12 : control change: 100 value: 0
channel 12 : control change: 6 value: 12
channel 12 : pitch wheel change 8192
channel 12 : control change: 101 value: 127
channel 12 : control change: 100 value: 127
channel 13 : control change: 121 value: 0
channel 13 : control change: 0 value: 0
channel 13 : control change: 32 value: 0
channel 13 : program change 0
channel 13 : control change: 10 value: 64
channel 13 : control change: 7 value: 100
channel 13 : control change: 91 value: 0
channel 13 : control change: 11 value: 127
channel 13 : control change: 1 value: 0
channel 13 : control change: 101 value: 0
channel 13 : control change: 100 value: 1
channel 13 : control change: 6 value: 64
channel 13 : control change: 38 value: 0
channel 13 : control change: 101 value: 0
channel 13 : control change: 100 value: 2
channel 13 : control change: 6 value: 64
channel 13 : control change: 101 value: 0
channel 13 : control change: 100 value: 0
channel 13 : control change: 6 value: 12
channel 13 : pitch wheel change 8192
channel 13 : control change: 101 value: 127
channel 13 : control change: 100 value: 127
channel 14 : control change: 121 value: 0
channel 14 : control change: 0 value: 0
channel 14 : control change: 32 value: 0
channel 14 : program change 0
channel 14 : control change: 10 value: 64
channel 14 : control change: 7 value: 100
channel 14 : control change: 91 value: 0
channel 14 : control change: 11 value: 127
channel 14 : control change: 1 value: 0
channel 14 : control change: 101 value: 0
channel 14 : control change: 100 value: 1
channel 14 : control change: 6 value: 64
channel 14 : control change: 38 value: 0
channel 14 : control change: 101 value: 0
channel 14 : control change: 100 value: 2
channel 14 : control change: 6 value: 64
channel 14 : control change: 101 value: 0
channel 14 : control change: 100 value: 0
channel 14 : control change: 6 value: 12
channel 14 : pitch wheel change 8192
channel 14 : control change: 101 value: 127
channel 14 : control change: 100 value: 127
channel 15 : control change: 121 value: 0
channel 15 : control change: 0 value: 0
channel 15 : control change: 32 value: 0
channel 15 : program change 0
channel 15 : control change: 10 value: 64
channel 15 : control change: 7 value: 100
channel 15 : control change: 91 value: 0
channel 15 : control change: 11 value: 127
channel 15 : control change: 1 value: 0
channel 15 : control change: 101 value: 0
channel 15 : control change: 100 value: 1
channel 15 : control change: 6 value: 64
channel 15 : control change: 38 value: 0
channel 15 : control change: 101 value: 0
channel 15 : control change: 100 value: 2
channel 15 : control change: 6 value: 64
channel 15 : control change: 101 value: 0
channel 15 : control change: 100 value: 0
channel 15 : control change: 6 value: 12
channel 15 : pitch wheel change 8192
channel 15 : control change: 101 value: 127
channel 15 : control change: 100 value: 127
channel 16 : control change: 121 value: 0
channel 16 : control change: 0 value: 0
channel 16 : control change: 32 value: 0
channel 16 : program change 0
channel 16 : control change: 10 value: 64
channel 16 : control change: 7 value: 100
channel 16 : control change: 91 value: 0
channel 16 : control change: 11 value: 127
channel 16 : control change: 1 value: 0
channel 16 : control change: 101 value: 0
channel 16 : control change: 100 value: 1
channel 16 : control change: 6 value: 64
channel 16 : control change: 38 value: 0
channel 16 : control change: 101 value: 0
channel 16 : control change: 100 value: 2
channel 16 : control change: 6 value: 64
channel 16 : control change: 101 value: 0
channel 16 : control change: 100 value: 0
channel 16 : control change: 6 value: 12
channel 16 : pitch wheel change 8192
channel 16 : control change: 101 value: 127
channel 16 : control change: 100 value: 127
channel 1 : control change: 64 value: 69
channel 1 : control change: 64 value: 109
channel 1 : control change: 64 value: 127
channel 1 : note On G3 velocity: 84
channel 1 : note Off G3 velocity: 0
channel 1 : note On C4 velocity: 117
channel 1 : note Off C4 velocity: 0
channel 1 : note On C4 velocity: 122
channel 1 : note Off C4 velocity: 0
channel 1 : control change: 64 value: 67
channel 1 : control change: 64 value: 27
channel 1 : control change: 64 value: 6
channel 1 : control change: 64 value: 0
channel 1 : control change: 64 value: 69
channel 1 : control change: 64 value: 109
channel 1 : control change: 64 value: 127
channel 1 : note On E4 velocity: 117
channel 1 : note On D4 velocity: 112
channel 1 : note Off E4 velocity: 0
channel 1 : note On C4 velocity: 105
channel 1 : note Off D4 velocity: 0
channel 1 : note On E4 velocity: 117
channel 1 : note Off C4 velocity: 0
channel 1 : control change: 64 value: 67
channel 1 : control change: 64 value: 27
channel 1 : control change: 64 value: 6
channel 1 : control change: 64 value: 0
channel 1 : control change: 64 value: 69
channel 1 : control change: 64 value: 109
channel 1 : control change: 64 value: 127
channel 1 : note Off E4 velocity: 0
channel 1 : control change: 64 value: 67
channel 1 : control change: 64 value: 27
channel 1 : control change: 64 value: 6
channel 1 : control change: 64 value: 0
channel 1 : control change: 64 value: 69
channel 1 : control change: 64 value: 109
channel 1 : control change: 64 value: 127
channel 1 : note On E4 velocity: 117
channel 1 : note On D4 velocity: 112
channel 1 : note Off E4 velocity: 0
channel 1 : control change: 64 value: 67
channel 1 : control change: 64 value: 27
channel 1 : control change: 64 value: 6
channel 1 : control change: 64 value: 0
channel 1 : note Off D4 velocity: 0
channel 1 : note On C4 velocity: 120
channel 1 : control change: 64 value: 67
channel 1 : control change: 64 value: 109
channel 1 : control change: 64 value: 127
channel 1 : note Off C4 velocity: 0
channel 1 : control change: 64 value: 67
channel 1 : control change: 64 value: 27
channel 1 : control change: 64 value: 6
channel 1 : control change: 64 value: 0
channel 1 : note On A3 velocity: 100
channel 1 : control change: 64 value: 69
channel 1 : control change: 64 value: 109
channel 1 : control change: 64 value: 127
channel 1 : note Off A3 velocity: 0
channel 1 : note On G3 velocity: 105
channel 1 : note Off G3 velocity: 0
channel 1 : control change: 64 value: 67
channel 1 : control change: 64 value: 27
channel 1 : control change: 64 value: 6
channel 1 : control change: 64 value: 0
channel 2 : control change: 121 value: 0
channel 2 : control change: 0 value: 0
channel 2 : control change: 32 value: 0
channel 2 : program change 0
channel 2 : control change: 10 value: 64
channel 2 : control change: 7 value: 100
channel 2 : control change: 91 value: 0
channel 2 : control change: 11 value: 127
channel 2 : control change: 1 value: 0
channel 2 : control change: 101 value: 0
channel 2 : control change: 100 value: 1
channel 2 : control change: 6 value: 64
channel 2 : control change: 38 value: 0
channel 2 : control change: 101 value: 0
channel 2 : control change: 100 value: 2
channel 2 : control change: 6 value: 64
channel 2 : control change: 101 value: 0
channel 2 : control change: 100 value: 0
channel 2 : control change: 6 value: 12
channel 2 : pitch wheel change 8192
channel 2 : control change: 101 value: 127
channel 2 : control change: 100 value: 127
channel 3 : control change: 121 value: 0
channel 3 : control change: 0 value: 0
channel 3 : control change: 32 value: 0
channel 3 : program change 0
channel 3 : control change: 10 value: 64
channel 3 : control change: 7 value: 100
channel 1 : control change: 64 value: 69
channel 1 : control change: 64 value: 109
channel 1 : control change: 64 value: 127
channel 1 : note On G3 velocity: 84
channel 1 : note Off G3 velocity: 0
channel 1 : note On C4 velocity: 117
channel 1 : note Off C4 velocity: 0
channel 1 : note On C4 velocity: 122
channel 1 : note Off C4 velocity: 0
channel 1 : control change: 64 value: 67
channel 1 : control change: 64 value: 27
channel 1 : control change: 64 value: 6
channel 1 : control change: 64 value: 0
channel 1 : control change: 64 value: 69
channel 1 : control change: 64 value: 109
channel 1 : control change: 64 value: 127
channel 1 : note On E4 velocity: 117
channel 1 : note On D4 velocity: 112
channel 1 : note Off E4 velocity: 0
channel 1 : note On C4 velocity: 105
channel 1 : note Off D4 velocity: 0
channel 1 : note On E4 velocity: 117
channel 1 : note Off C4 velocity: 0
channel 1 : control change: 64 value: 67
channel 1 : control change: 64 value: 27
channel 1 : control change: 64 value: 6
channel 1 : control change: 64 value: 0
channel 1 : control change: 64 value: 69
channel 1 : control change: 64 value: 109
channel 1 : control change: 64 value: 127
channel 1 : note Off E4 velocity: 0
channel 1 : control change: 64 value: 67
channel 1 : control change: 64 value: 27
channel 1 : control change: 64 value: 6
channel 1 : control change: 64 value: 0
channel 1 : control change: 64 value: 69
channel 1 : control change: 64 value: 109
channel 1 : control change: 64 value: 127
channel 1 : note On E4 velocity: 117
channel 1 : note On D4 velocity: 112
channel 1 : note Off E4 velocity: 0
channel 1 : control change: 64 value: 67
channel 1 : control change: 64 value: 27
channel 1 : control change: 64 value: 6
channel 1 : control change: 64 value: 0
channel 1 : note Off D4 velocity: 0
channel 1 : note On C4 velocity: 120
channel 1 : control change: 64 value: 67
channel 1 : control change: 64 value: 109
channel 1 : control change: 64 value: 127
channel 1 : note Off C4 velocity: 0
channel 1 : control change: 64 value: 67
channel 1 : control change: 64 value: 27
channel 1 : control change: 64 value: 6
channel 1 : control change: 64 value: 0
channel 1 : note On A3 velocity: 100
channel 1 : control change: 64 value: 69
channel 1 : control change: 64 value: 109
channel 1 : control change: 64 value: 127
channel 1 : note Off A3 velocity: 0
channel 1 : note On G3 velocity: 105
channel 1 : note Off G3 velocity: 0
channel 1 : control change: 64 value: 67
channel 1 : control change: 64 value: 27
channel 1 : control change: 64 value: 6
channel 1 : control change: 64 value: 0
channel 2 : control change: 121 value: 0
channel 2 : control change: 0 value: 0
channel 2 : control change: 32 value: 0
channel 2 : program change 0
channel 2 : control change: 10 value: 64
channel 2 : control change: 7 value: 100
channel 2 : control change: 91 value: 0
channel 2 : control change: 11 value: 127
channel 2 : control change: 1 value: 0
channel 2 : control change: 101 value: 0
channel 2 : control change: 100 value: 1
channel 2 : control change: 6 value: 64
channel 2 : control change: 38 value: 0
channel 2 : control change: 101 value: 0
channel 2 : control change: 100 value: 2
channel 2 : control change: 6 value: 64
channel 2 : control change: 101 value: 0
channel 2 : control change: 100 value: 0
channel 2 : control change: 6 value: 12
channel 2 : pitch wheel change 8192
channel 2 : control change: 101 value: 127
channel 2 : control change: 100 value: 127
channel 3 : control change: 121 value: 0
channel 3 : control change: 0 value: 0
channel 3 : control change: 32 value: 0
channel 3 : program change 0
channel 3 : control change: 10 value: 64
channel 3 : control change: 7 value: 100
channel 3 : control change: 91 value: 0
channel 3 : control change: 11 value: 127
channel 3 : control change: 1 value: 0
channel 3 : control change: 101 value: 0
channel 3 : control change: 100 value: 1
channel 3 : control change: 6 value: 64
channel 3 : control change: 38 value: 0
channel 3 : control change: 101 value: 0
channel 3 : control change: 100 value: 2
channel 3 : control change: 6 value: 64
channel 3 : control change: 101 value: 0
channel 3 : control change: 100 value: 0
channel 3 : control change: 6 value: 12
channel 3 : pitch wheel change 8192
channel 3 : control change: 101 value: 127
channel 3 : control change: 100 value: 127
channel 4 : control change: 121 value: 0
channel 4 : control change: 0 value: 0
channel 4 : control change: 32 value: 0
channel 4 : program change 0
channel 4 : control change: 10 value: 64
channel 4 : control change: 7 value: 100
channel 4 : control change: 91 value: 0
channel 4 : control change: 11 value: 127
channel 4 : control change: 1 value: 0
channel 4 : control change: 101 value: 0
channel 4 : control change: 100 value: 1
channel 4 : control change: 6 value: 64
channel 4 : control change: 38 value: 0
channel 4 : control change: 101 value: 0
channel 4 : control change: 100 value: 2
channel 4 : control change: 6 value: 64
channel 4 : control change: 101 value: 0
channel 4 : control change: 100 value: 0
channel 4 : control change: 6 value: 12
channel 4 : pitch wheel change 8192
channel 4 : control change: 101 value: 127
channel 4 : control change: 100 value: 127
channel 5 : control change: 121 value: 0
channel 5 : control change: 0 value: 0
channel 5 : control change: 32 value: 0
channel 5 : program change 0
channel 5 : control change: 10 value: 64
channel 5 : control change: 7 value: 100
channel 5 : control change: 91 value: 0
channel 5 : control change: 11 value: 127
channel 5 : control change: 1 value: 0
channel 5 : control change: 101 value: 0
channel 5 : control change: 100 value: 1
channel 5 : control change: 6 value: 64
channel 5 : control change: 38 value: 0
channel 5 : control change: 101 value: 0
channel 5 : control change: 100 value: 2
channel 5 : control change: 6 value: 64
channel 5 : control change: 101 value: 0
channel 5 : control change: 100 value: 0
channel 5 : control change: 6 value: 12
channel 5 : pitch wheel change 8192
channel 5 : control change: 101 value: 127
channel 5 : control change: 100 value: 127
channel 6 : control change: 121 value: 0
channel 6 : control change: 0 value: 0
channel 6 : control change: 32 value: 0
channel 6 : program change 0
channel 6 : control change: 10 value: 64
channel 6 : control change: 7 value: 100
channel 6 : control change: 91 value: 0
channel 6 : control change: 11 value: 127
channel 6 : control change: 1 value: 0
channel 6 : control change: 101 value: 0
channel 6 : control change: 100 value: 1
channel 6 : control change: 6 value: 64
channel 6 : control change: 38 value: 0
channel 6 : control change: 101 value: 0
channel 6 : control change: 100 value: 2
channel 6 : control change: 6 value: 64
channel 6 : control change: 101 value: 0
channel 6 : control change: 100 value: 0
channel 6 : control change: 6 value: 12
channel 6 : pitch wheel change 8192
channel 6 : control change: 101 value: 127
channel 6 : control change: 100 value: 127
channel 7 : control change: 121 value: 0
channel 7 : control change: 0 value: 0
channel 7 : control change: 32 value: 0
channel 7 : program change 0
channel 7 : control change: 10 value: 64
channel 7 : control change: 7 value: 100
channel 7 : control change: 91 value: 0
channel 7 : control change: 11 value: 127
